# Blender v2.78 (sub 0) OBJ File: 'Cloth_Wall.blend'
# www.blender.org
mtllib Cloth_Wall_2.mtl
o Cube
v -0.814059 -0.814059 0.814059
v -0.189482 7.573976 0.189482
v -0.814059 -0.814059 -0.814059
v -0.189482 7.573976 -0.189482
v 0.814059 -0.814059 0.814059
v 0.189482 7.573976 0.189482
v 0.814059 -0.814059 -0.814059
v 0.189482 7.573976 -0.189482
v 0.000000 1.104350 0.513648
v 0.000000 1.104350 1.268578
v 0.129774 1.062184 0.513648
v 0.129774 1.062184 1.268578
v 0.209979 0.951791 0.513648
v 0.209979 0.951791 1.268578
v 0.209979 0.815339 0.513648
v 0.209979 0.815339 1.268578
v 0.129774 0.704946 0.513648
v 0.129774 0.704946 1.268578
v 0.000000 0.662780 0.513648
v 0.000000 0.662780 1.268578
v -0.129774 0.704946 0.513648
v -0.129774 0.704946 1.268578
v -0.209979 0.815339 0.513648
v -0.209979 0.815339 1.268578
v -0.209979 0.951791 0.513648
v -0.209979 0.951791 1.268578
v -0.129774 1.062184 0.513648
v -0.129774 1.062184 1.268578
v 0.000000 6.287853 0.061016
v 0.000000 6.287853 1.304289
v 0.129774 6.245687 0.061016
v 0.129774 6.245687 1.304289
v 0.209979 6.135294 0.061016
v 0.209979 6.135294 1.304289
v 0.209979 5.998842 0.061016
v 0.209979 5.998842 1.304289
v 0.129774 5.888450 0.061016
v 0.129774 5.888450 1.304289
v 0.000000 5.846283 0.061016
v 0.000000 5.846283 1.304289
v -0.129774 5.888450 0.061016
v -0.129774 5.888450 1.304289
v -0.209979 5.998842 0.061016
v -0.209979 5.998842 1.304289
v -0.209979 6.135294 0.061016
v -0.209979 6.135294 1.304289
v -0.129774 6.245687 0.061016
v -0.129774 6.245687 1.304289
v 0.000000 3.578691 -1.185231
v 0.000000 3.578691 0.325940
v 0.129774 3.536525 -1.185231
v 0.129774 3.536525 0.325940
v 0.209979 3.426132 -1.185231
v 0.209979 3.426132 0.325940
v 0.209979 3.289680 -1.185231
v 0.209979 3.289680 0.325940
v 0.129774 3.179287 -1.185231
v 0.129774 3.179287 0.325940
v 0.000000 3.137121 -1.185231
v 0.000000 3.137121 0.325940
v -0.129774 3.179287 -1.185231
v -0.129774 3.179287 0.325940
v -0.209979 3.289680 -1.185231
v -0.209979 3.289680 0.325940
v -0.209979 3.426132 -1.185231
v -0.209979 3.426132 0.325940
v -0.129774 3.536525 -1.185231
v -0.129774 3.536525 0.325940
vt 0.3879 0.0004
vt 0.3137 0.9996
vt 0.2687 0.9996
vt 0.1945 0.0004
vt 0.7763 0.0004
vt 0.7021 0.9996
vt 0.6570 0.9996
vt 0.5828 0.0004
vt 0.1938 0.0004
vt 0.1198 0.9996
vt 0.0748 0.9996
vt 0.0004 0.0004
vt 0.5821 0.0004
vt 0.5079 0.9996
vt 0.4629 0.9996
vt 0.3887 0.0004
vt 0.9704 0.1938
vt 0.7770 0.1938
vt 0.7770 0.0004
vt 0.9704 0.0004
vt 0.8727 0.4150
vt 0.8727 0.4600
vt 0.8276 0.4600
vt 0.8276 0.4150
vt 0.9173 0.5617
vt 0.8276 0.5617
vt 0.8276 0.5455
vt 0.9173 0.5455
vt 0.8667 0.8837
vt 0.7770 0.8837
vt 0.7770 0.8675
vt 0.8667 0.8675
vt 0.9173 0.5278
vt 0.8276 0.5278
vt 0.8276 0.5116
vt 0.9173 0.5116
vt 0.9173 0.4939
vt 0.8276 0.4939
vt 0.8276 0.4777
vt 0.9173 0.4777
vt 0.9173 0.5109
vt 0.8276 0.5109
vt 0.8276 0.4947
vt 0.9173 0.4947
vt 0.8667 0.8667
vt 0.7770 0.8667
vt 0.7770 0.8505
vt 0.8667 0.8505
vt 0.8667 0.9007
vt 0.7770 0.9007
vt 0.7770 0.8844
vt 0.8667 0.8844
vt 0.9173 0.4770
vt 0.8276 0.4770
vt 0.8276 0.4608
vt 0.9173 0.4608
vt 0.8174 0.4625
vt 0.8020 0.4675
vt 0.7865 0.4625
vt 0.7770 0.4493
vt 0.7770 0.4331
vt 0.7865 0.4200
vt 0.8020 0.4150
vt 0.8174 0.4200
vt 0.8269 0.4331
vt 0.8269 0.4493
vt 0.9173 0.5448
vt 0.8276 0.5448
vt 0.8276 0.5286
vt 0.9173 0.5286
vt 0.9173 0.5787
vt 0.8276 0.5787
vt 0.8276 0.5625
vt 0.9173 0.5625
vt 0.7951 0.4143
vt 0.7820 0.4047
vt 0.7770 0.3893
vt 0.7820 0.3739
vt 0.7951 0.3644
vt 0.8113 0.3644
vt 0.8245 0.3739
vt 0.8295 0.3893
vt 0.8245 0.4047
vt 0.8113 0.4143
vt 0.9247 0.7820
vt 0.7770 0.7820
vt 0.7770 0.7658
vt 0.9247 0.7658
vt 0.9247 0.7311
vt 0.7770 0.7311
vt 0.7770 0.7149
vt 0.9247 0.7149
vt 0.9247 0.8498
vt 0.7770 0.8498
vt 0.7770 0.8336
vt 0.9247 0.8336
vt 0.9247 0.6972
vt 0.7770 0.6972
vt 0.7770 0.6810
vt 0.9247 0.6810
vt 0.9247 0.7481
vt 0.7770 0.7481
vt 0.7770 0.7319
vt 0.9247 0.7319
vt 0.9247 0.7650
vt 0.7770 0.7650
vt 0.7770 0.7488
vt 0.9247 0.7488
vt 0.9247 0.7142
vt 0.7770 0.7142
vt 0.7770 0.6980
vt 0.9247 0.6980
vt 0.9247 0.8328
vt 0.7770 0.8328
vt 0.7770 0.8166
vt 0.9247 0.8166
vt 0.8174 0.6221
vt 0.8020 0.6271
vt 0.7865 0.6221
vt 0.7770 0.6089
vt 0.7770 0.5927
vt 0.7865 0.5796
vt 0.8020 0.5746
vt 0.8174 0.5796
vt 0.8269 0.5927
vt 0.8269 0.6089
vt 0.9247 0.8159
vt 0.7770 0.8159
vt 0.7770 0.7997
vt 0.9247 0.7997
vt 0.9247 0.7989
vt 0.7770 0.7989
vt 0.7770 0.7827
vt 0.9247 0.7827
vt 0.8020 0.5739
vt 0.7865 0.5689
vt 0.7770 0.5557
vt 0.7770 0.5395
vt 0.7865 0.5264
vt 0.8020 0.5214
vt 0.8174 0.5264
vt 0.8269 0.5395
vt 0.8269 0.5557
vt 0.8174 0.5689
vt 0.9565 0.3297
vt 0.7770 0.3297
vt 0.7770 0.3135
vt 0.9565 0.3135
vt 0.9565 0.2789
vt 0.7770 0.2788
vt 0.7770 0.2626
vt 0.9565 0.2627
vt 0.9565 0.3467
vt 0.7770 0.3467
vt 0.7770 0.3305
vt 0.9565 0.3305
vt 0.9565 0.2108
vt 0.7770 0.2107
vt 0.7770 0.1945
vt 0.9565 0.1946
vt 0.9565 0.2618
vt 0.7770 0.2618
vt 0.7770 0.2456
vt 0.9565 0.2456
vt 0.9565 0.2448
vt 0.7770 0.2448
vt 0.7770 0.2286
vt 0.9565 0.2286
vt 0.9565 0.2278
vt 0.7770 0.2278
vt 0.7770 0.2115
vt 0.9565 0.2116
vt 0.9565 0.3636
vt 0.7770 0.3636
vt 0.7770 0.3474
vt 0.9565 0.3474
vt 0.8174 0.5157
vt 0.8020 0.5207
vt 0.7865 0.5157
vt 0.7770 0.5025
vt 0.7770 0.4863
vt 0.7865 0.4732
vt 0.8020 0.4682
vt 0.8174 0.4732
vt 0.8269 0.4863
vt 0.8269 0.5025
vt 0.9565 0.2958
vt 0.7770 0.2958
vt 0.7770 0.2796
vt 0.9565 0.2796
vt 0.9565 0.3128
vt 0.7770 0.3128
vt 0.7770 0.2966
vt 0.9565 0.2966
vt 0.8174 0.6753
vt 0.8020 0.6803
vt 0.7865 0.6753
vt 0.7770 0.6621
vt 0.7770 0.6459
vt 0.7865 0.6328
vt 0.8020 0.6278
vt 0.8174 0.6328
vt 0.8269 0.6459
vt 0.8269 0.6621
vn -0.9972 0.0743 0.0000
vn 0.0000 0.0743 -0.9972
vn 0.9972 0.0743 0.0000
vn 0.0000 0.0743 0.9972
vn 0.0000 -1.0000 0.0000
vn 0.0000 1.0000 0.0000
vn 0.3090 0.9511 0.0000
vn 0.8090 0.5878 0.0000
vn 1.0000 0.0000 0.0000
vn 0.8090 -0.5878 -0.0000
vn 0.3090 -0.9511 -0.0000
vn -0.3090 -0.9511 0.0000
vn -0.8090 -0.5878 0.0000
vn -1.0000 0.0000 0.0000
vn -0.0000 0.0000 1.0000
vn -0.8090 0.5878 0.0000
vn -0.3090 0.9511 0.0000
vn 0.0000 0.0000 -1.0000
usemtl None
s off
f 1/1/1 2/2/1 4/3/1 3/4/1
f 3/5/2 4/6/2 8/7/2 7/8/2
f 7/9/3 8/10/3 6/11/3 5/12/3
f 5/13/4 6/14/4 2/15/4 1/16/4
f 3/17/5 7/18/5 5/19/5 1/20/5
f 8/21/6 4/22/6 2/23/6 6/24/6
f 9/25/7 10/26/7 12/27/7 11/28/7
f 11/29/8 12/30/8 14/31/8 13/32/8
f 13/33/9 14/34/9 16/35/9 15/36/9
f 15/37/10 16/38/10 18/39/10 17/40/10
f 17/41/11 18/42/11 20/43/11 19/44/11
f 19/45/12 20/46/12 22/47/12 21/48/12
f 21/49/13 22/50/13 24/51/13 23/52/13
f 23/53/14 24/54/14 26/55/14 25/56/14
f 12/57/15 10/58/15 28/59/15 26/60/15 24/61/15 22/62/15 20/63/15 18/64/15 16/65/15 14/66/15
f 25/67/16 26/68/16 28/69/16 27/70/16
f 27/71/17 28/72/17 10/73/17 9/74/17
f 9/75/18 11/76/18 13/77/18 15/78/18 17/79/18 19/80/18 21/81/18 23/82/18 25/83/18 27/84/18
f 29/85/7 30/86/7 32/87/7 31/88/7
f 31/89/8 32/90/8 34/91/8 33/92/8
f 33/93/9 34/94/9 36/95/9 35/96/9
f 35/97/10 36/98/10 38/99/10 37/100/10
f 37/101/11 38/102/11 40/103/11 39/104/11
f 39/105/12 40/106/12 42/107/12 41/108/12
f 41/109/13 42/110/13 44/111/13 43/112/13
f 43/113/14 44/114/14 46/115/14 45/116/14
f 32/117/15 30/118/15 48/119/15 46/120/15 44/121/15 42/122/15 40/123/15 38/124/15 36/125/15 34/126/15
f 45/127/16 46/128/16 48/129/16 47/130/16
f 47/131/17 48/132/17 30/133/17 29/134/17
f 29/135/18 31/136/18 33/137/18 35/138/18 37/139/18 39/140/18 41/141/18 43/142/18 45/143/18 47/144/18
f 49/145/7 50/146/7 52/147/7 51/148/7
f 51/149/8 52/150/8 54/151/8 53/152/8
f 53/153/9 54/154/9 56/155/9 55/156/9
f 55/157/10 56/158/10 58/159/10 57/160/10
f 57/161/11 58/162/11 60/163/11 59/164/11
f 59/165/12 60/166/12 62/167/12 61/168/12
f 61/169/13 62/170/13 64/171/13 63/172/13
f 63/173/14 64/174/14 66/175/14 65/176/14
f 52/177/15 50/178/15 68/179/15 66/180/15 64/181/15 62/182/15 60/183/15 58/184/15 56/185/15 54/186/15
f 65/187/16 66/188/16 68/189/16 67/190/16
f 67/191/17 68/192/17 50/193/17 49/194/17
f 49/195/18 51/196/18 53/197/18 55/198/18 57/199/18 59/200/18 61/201/18 63/202/18 65/203/18 67/204/18
