# Blender v2.78 (sub 0) OBJ File: 'Cloth_Wall.blend'
# www.blender.org
mtllib Cloth_Wall.mtl
o Plane
v -0.685982 0.043430 0.932336
v -0.685982 0.043430 -0.759277
v -0.685982 5.836566 0.932336
v -0.685982 5.836566 -0.759277
v -0.362180 2.907808 -0.759277
v -0.362180 2.907808 0.932336
v -0.547403 1.449518 -0.759277
v -0.547403 1.449518 0.932336
v -0.547403 4.245517 -0.759277
v -0.547403 4.245517 0.932336
v 0.715969 0.043430 0.932336
v 0.715969 0.043430 -0.759277
v 0.715969 5.836566 0.932336
v 0.715969 5.836566 -0.759277
v 0.392167 2.907808 -0.759277
v 0.392167 2.907808 0.932336
v 0.577390 1.449518 -0.759277
v 0.577390 1.449518 0.932336
v 0.577390 4.245517 -0.759277
v 0.577390 4.245517 0.932336
v -0.001073 5.123358 -0.420353
v -0.001073 5.123358 -1.268863
v 0.000000 1.273442 -1.256724
v 0.000000 1.273442 -0.408214
v 0.137443 1.228784 -1.256724
v 0.137443 1.228784 -0.408214
v 0.222387 1.111868 -1.256724
v 0.222387 1.111868 -0.408214
v 0.222387 0.967352 -1.256724
v 0.222387 0.967352 -0.408214
v 0.137443 0.850436 -1.256724
v 0.137443 0.850436 -0.408214
v -0.000000 0.805778 -1.256724
v -0.000000 0.805778 -0.408214
v -0.137443 0.850436 -1.256724
v -0.137443 0.850436 -0.408214
v -0.222387 0.967352 -1.256724
v -0.222387 0.967352 -0.408214
v -0.222387 1.111868 -1.256724
v -0.222387 1.111868 -0.408214
v -0.137443 1.228784 -1.256724
v -0.137443 1.228784 -0.408214
v 0.136369 5.078701 -1.268863
v 0.136369 5.078701 -0.420353
v 0.221314 4.961784 -1.268863
v 0.221314 4.961784 -0.420353
v 0.221314 4.817268 -1.268863
v 0.221314 4.817268 -0.420353
v 0.136369 4.700353 -1.268863
v 0.136369 4.700353 -0.420353
v -0.001074 4.655695 -1.268863
v -0.001074 4.655695 -0.420353
v -0.138516 4.700353 -1.268863
v -0.138516 4.700353 -0.420353
v -0.223461 4.817268 -1.268863
v -0.223461 4.817268 -0.420353
v -0.223461 4.961784 -1.268863
v -0.223461 4.961784 -0.420353
v -0.138516 5.078701 -1.268863
v -0.138516 5.078701 -0.420353
v -0.001073 3.030756 1.369784
v -0.001073 3.030756 0.521274
v 0.136369 2.986098 0.521274
v 0.136369 2.986098 1.369784
v 0.221314 2.869182 0.521274
v 0.221314 2.869182 1.369784
v 0.221314 2.724666 0.521274
v 0.221314 2.724666 1.369784
v 0.136369 2.607750 0.521274
v 0.136369 2.607750 1.369784
v -0.001074 2.563092 0.521274
v -0.001074 2.563092 1.369783
v -0.138516 2.607750 0.521273
v -0.138516 2.607750 1.369783
v -0.223461 2.724666 0.521274
v -0.223461 2.724666 1.369783
v -0.223461 2.869182 0.521274
v -0.223461 2.869182 1.369784
v -0.138516 2.986098 0.521274
v -0.138516 2.986098 1.369783
vt 0.4758 0.7247
vt 0.8769 0.7247
vt 0.8769 0.8444
vt 0.4758 0.8444
vt 0.4758 0.8454
vt 0.8769 0.8454
vt 0.8769 0.9634
vt 0.4758 0.9634
vt 0.4758 0.4758
vt 0.8769 0.4758
vt 0.8769 0.6030
vt 0.4758 0.6030
vt 0.3340 0.1358
vt 0.7351 0.1358
vt 0.7351 0.2702
vt 0.3340 0.2702
vt 0.4758 0.6040
vt 0.8769 0.6040
vt 0.8769 0.7237
vt 0.4758 0.7237
vt 0.0005 0.8092
vt 0.4016 0.8092
vt 0.4016 0.9272
vt 0.0005 0.9272
vt 0.3340 0.2712
vt 0.7351 0.2712
vt 0.7351 0.3984
vt 0.3340 0.3984
vt 0.3340 0.0005
vt 0.7351 0.0005
vt 0.7351 0.1348
vt 0.3340 0.1348
vt 0.4748 0.8082
vt 0.3445 0.7753
vt 0.2350 0.7314
vt 0.1156 0.7753
vt 0.0005 0.8082
vt 0.0005 0.4758
vt 0.1156 0.5086
vt 0.2350 0.5525
vt 0.3445 0.5086
vt 0.4748 0.4758
vt 0.3329 0.0005
vt 0.3001 0.1156
vt 0.2562 0.2350
vt 0.3001 0.3445
vt 0.3329 0.4748
vt 0.0005 0.4748
vt 0.0334 0.3445
vt 0.0773 0.2350
vt 0.0334 0.1156
vt 0.0005 0.0005
vt 0.9396 0.4217
vt 0.7384 0.4217
vt 0.7384 0.3994
vt 0.9396 0.3994
vt 0.8980 0.5578
vt 0.9306 0.5541
vt 0.9632 0.5578
vt 0.9834 0.5673
vt 0.9834 0.5792
vt 0.9632 0.5887
vt 0.9306 0.5924
vt 0.8980 0.5887
vt 0.8779 0.5792
vt 0.8779 0.5673
vt 0.5352 0.4322
vt 0.3340 0.4322
vt 0.3340 0.3994
vt 0.5352 0.3994
vt 0.9306 0.7237
vt 0.8980 0.7200
vt 0.8779 0.7105
vt 0.8779 0.6986
vt 0.8980 0.6891
vt 0.9306 0.6854
vt 0.9632 0.6891
vt 0.9834 0.6986
vt 0.9834 0.7105
vt 0.9632 0.7200
vt 0.4039 0.9867
vt 0.2027 0.9867
vt 0.2027 0.9748
vt 0.4039 0.9748
vt 0.4039 0.9738
vt 0.2027 0.9738
vt 0.2027 0.9515
vt 0.4039 0.9515
vt 0.9373 0.0333
vt 0.7361 0.0333
vt 0.7361 0.0005
vt 0.9373 0.0005
vt 0.6770 0.9867
vt 0.4758 0.9867
vt 0.4758 0.9644
vt 0.6770 0.9644
vt 0.8792 0.9891
vt 0.6780 0.9891
vt 0.6780 0.9772
vt 0.8792 0.9772
vt 0.4039 0.9505
vt 0.2027 0.9505
vt 0.2027 0.9282
vt 0.4039 0.9282
vt 0.7374 0.4660
vt 0.5362 0.4660
vt 0.5362 0.4332
vt 0.7374 0.4332
vt 0.9373 0.3739
vt 0.7361 0.3739
vt 0.7361 0.3516
vt 0.9373 0.3516
vt 0.2017 0.9995
vt 0.0005 0.9995
vt 0.0005 0.9877
vt 0.2017 0.9877
vt 0.9373 0.1685
vt 0.7361 0.1685
vt 0.7361 0.1357
vt 0.9373 0.1357
vt 0.9373 0.2361
vt 0.7361 0.2361
vt 0.7361 0.2033
vt 0.9373 0.2033
vt 0.8980 0.6498
vt 0.9306 0.6461
vt 0.9632 0.6498
vt 0.9834 0.6593
vt 0.9834 0.6712
vt 0.9632 0.6807
vt 0.9306 0.6844
vt 0.8980 0.6807
vt 0.8779 0.6712
vt 0.8779 0.6593
vt 0.9373 0.2702
vt 0.7361 0.2701
vt 0.7361 0.2478
vt 0.9373 0.2479
vt 0.9373 0.1347
vt 0.7361 0.1347
vt 0.7361 0.1019
vt 0.9373 0.1019
vt 0.9306 0.7630
vt 0.8980 0.7593
vt 0.8779 0.7498
vt 0.8779 0.7379
vt 0.8980 0.7283
vt 0.9306 0.7247
vt 0.9632 0.7283
vt 0.9834 0.7379
vt 0.9834 0.7498
vt 0.9632 0.7593
vt 0.9396 0.4683
vt 0.7384 0.4683
vt 0.7384 0.4565
vt 0.9396 0.4565
vt 0.2017 0.9505
vt 0.0005 0.9505
vt 0.0005 0.9282
vt 0.2017 0.9282
vt 0.5352 0.4660
vt 0.3340 0.4660
vt 0.3340 0.4332
vt 0.5352 0.4332
vt 0.2017 0.9738
vt 0.0005 0.9738
vt 0.0005 0.9515
vt 0.2017 0.9515
vt 0.2017 0.9867
vt 0.0005 0.9867
vt 0.0005 0.9748
vt 0.2017 0.9748
vt 0.8980 0.5185
vt 0.9306 0.5148
vt 0.9632 0.5185
vt 0.9834 0.5280
vt 0.9834 0.5399
vt 0.9632 0.5494
vt 0.9306 0.5531
vt 0.8980 0.5494
vt 0.8779 0.5399
vt 0.8779 0.5280
vt 0.9373 0.0671
vt 0.7361 0.0671
vt 0.7361 0.0343
vt 0.9373 0.0343
vt 0.9373 0.3984
vt 0.7361 0.3984
vt 0.7361 0.3761
vt 0.9373 0.3761
vt 0.9373 0.2023
vt 0.7361 0.2023
vt 0.7361 0.1695
vt 0.9373 0.1695
vt 0.9396 0.4555
vt 0.7384 0.4555
vt 0.7384 0.4332
vt 0.9396 0.4332
vt 0.9373 0.3040
vt 0.7361 0.3040
vt 0.7361 0.2712
vt 0.9373 0.2712
vt 0.9331 0.5138
vt 0.9003 0.5138
vt 0.8792 0.5065
vt 0.8779 0.4948
vt 0.8968 0.4830
vt 0.9288 0.4758
vt 0.9616 0.4758
vt 0.9827 0.4830
vt 0.9840 0.4948
vt 0.9651 0.5065
vt 0.8792 0.9762
vt 0.6780 0.9762
vt 0.6780 0.9644
vt 0.8792 0.9644
vt 0.9373 0.1009
vt 0.7361 0.1009
vt 0.7361 0.0681
vt 0.9373 0.0681
vt 0.9373 0.3506
vt 0.7361 0.3506
vt 0.7361 0.3283
vt 0.9373 0.3283
vt 0.7374 0.4322
vt 0.5362 0.4322
vt 0.5362 0.3994
vt 0.7374 0.3994
vt 0.9373 0.3273
vt 0.7361 0.3273
vt 0.7361 0.3050
vt 0.9373 0.3050
vn 0.9952 -0.0981 -0.0000
vn 0.9905 0.1372 -0.0000
vn 0.9920 -0.1260 0.0000
vn 0.9962 0.0868 -0.0000
vn 0.9952 0.0981 -0.0000
vn 0.9905 -0.1372 -0.0000
vn 0.9920 0.1260 -0.0000
vn 0.9962 -0.0868 -0.0000
vn 0.0000 0.0000 1.0000
vn -0.0000 0.0000 -1.0000
vn 0.8090 -0.5878 0.0000
vn 0.3090 0.9511 -0.0000
vn -1.0000 0.0000 -0.0000
vn 0.8090 0.5878 -0.0000
vn -0.3090 -0.9511 -0.0000
vn -0.8090 -0.5878 -0.0000
vn 1.0000 -0.0000 0.0000
vn 0.3090 -0.9511 0.0000
vn -0.3090 0.9511 0.0000
vn -0.8090 0.5878 -0.0000
usemtl None
s off
f 1/1/1 2/2/1 7/3/1 8/4/1
f 6/5/2 5/6/2 9/7/2 10/8/2
f 8/9/3 7/10/3 5/11/3 6/12/3
f 10/13/4 9/14/4 4/15/4 3/16/4
f 11/17/5 12/18/5 17/19/5 18/20/5
f 16/21/6 15/22/6 19/23/6 20/24/6
f 18/25/7 17/26/7 15/27/7 16/28/7
f 20/29/8 19/30/8 14/31/8 13/32/8
f 4/33/9 9/34/9 5/35/9 7/36/9 2/37/9 12/38/9 17/39/9 15/40/9 19/41/9 14/42/9
f 1/43/10 8/44/10 6/45/10 10/46/10 3/47/10 13/48/10 20/49/10 16/50/10 18/51/10 11/52/10
f 67/53/11 68/54/11 70/55/11 69/56/11
f 44/57/9 21/58/9 60/59/9 58/60/9 56/61/9 54/62/9 52/63/9 50/64/9 48/65/9 46/66/9
f 23/67/12 24/68/12 26/69/12 25/70/12
f 62/71/10 63/72/10 65/73/10 67/74/10 69/75/10 71/76/10 73/77/10 75/78/10 77/79/10 79/80/10
f 55/81/13 56/82/13 58/83/13 57/84/13
f 25/85/14 26/86/14 28/87/14 27/88/14
f 71/89/15 72/90/15 74/91/15 73/92/15
f 53/93/16 54/94/16 56/95/16 55/96/16
f 27/97/17 28/98/17 30/99/17 29/100/17
f 73/101/16 74/102/16 76/103/16 75/104/16
f 51/105/15 52/106/15 54/107/15 53/108/15
f 29/109/11 30/110/11 32/111/11 31/112/11
f 75/113/13 76/114/13 78/115/13 77/116/13
f 49/117/18 50/118/18 52/119/18 51/120/18
f 31/121/18 32/122/18 34/123/18 33/124/18
f 64/125/9 61/126/9 80/127/9 78/128/9 76/129/9 74/130/9 72/131/9 70/132/9 68/133/9 66/134/9
f 47/135/11 48/136/11 50/137/11 49/138/11
f 33/139/15 34/140/15 36/141/15 35/142/15
f 22/143/10 43/144/10 45/145/10 47/146/10 49/147/10 51/148/10 53/149/10 55/150/10 57/151/10 59/152/10
f 45/153/17 46/154/17 48/155/17 47/156/17
f 35/157/16 36/158/16 38/159/16 37/160/16
f 59/161/19 60/162/19 21/163/19 22/164/19
f 43/165/14 44/166/14 46/167/14 45/168/14
f 37/169/13 38/170/13 40/171/13 39/172/13
f 26/173/9 24/174/9 42/175/9 40/176/9 38/177/9 36/178/9 34/179/9 32/180/9 30/181/9 28/182/9
f 22/183/12 21/184/12 44/185/12 43/186/12
f 39/187/20 40/188/20 42/189/20 41/190/20
f 69/191/18 70/192/18 72/193/18 71/194/18
f 57/195/20 58/196/20 60/197/20 59/198/20
f 41/199/19 42/200/19 24/201/19 23/202/19
f 23/203/10 25/204/10 27/205/10 29/206/10 31/207/10 33/208/10 35/209/10 37/210/10 39/211/10 41/212/10
f 65/213/17 66/214/17 68/215/17 67/216/17
f 79/217/19 80/218/19 61/219/19 62/220/19
f 63/221/14 64/222/14 66/223/14 65/224/14
f 62/225/12 61/226/12 64/227/12 63/228/12
f 77/229/20 78/230/20 80/231/20 79/232/20
