# Blender v2.78 (sub 0) OBJ File: 'R3_Peninsula.blend'
# www.blender.org
mtllib R3_Peninsula.mtl
o Cube.001
v -0.500000 0.000000 0.061983
v -0.500000 7.000000 0.025279
v -0.500000 0.000000 -0.671631
v -0.500000 7.000000 -0.671631
v 0.500000 0.000000 0.061983
v 0.500000 7.000000 0.025279
v 0.500000 0.000000 -0.671631
v 0.500000 7.000000 -0.671631
v -0.500000 1.626743 -0.171631
v -0.500000 1.658609 -0.671631
v 0.500000 1.658610 -0.671631
v 0.500000 1.626743 -0.171631
v -0.794495 0.000000 -0.671631
v -0.794495 0.000000 0.061983
v -0.794495 1.658609 -0.671631
v 0.765137 1.658610 -0.671631
v 0.765137 0.000000 -0.671631
v 1.000000 0.000000 0.061983
v 0.765137 1.626743 -0.171631
v -0.794495 1.626743 -0.171631
v -0.985689 0.009323 -0.671631
v -0.985689 0.009323 -0.171631
v -0.985689 0.341045 -0.671631
v 0.956332 0.341045 -0.671631
v 0.956332 0.009323 -0.671631
v 0.956332 0.009323 -0.171631
v 0.956332 0.334672 -0.171631
v -0.985689 0.334672 -0.171631
v -0.732255 2.174145 -0.241524
v -0.732255 6.061923 -0.044613
v -0.732255 6.061923 -0.601738
v 0.732255 6.061923 -0.601738
v 0.732255 6.061923 -0.044613
v -0.732255 2.197102 -0.601738
v 0.732255 2.197103 -0.601738
v 0.732255 2.174145 -0.241524
v -1.879328 7.000000 0.025279
v -1.879328 7.000000 -0.671631
v 1.879328 7.000000 -0.671631
v 1.879328 7.000000 0.025279
v -1.036534 6.251123 -0.044613
v -1.036534 6.251123 -0.601738
v 1.036534 6.251123 -0.601738
v 1.036534 6.251123 -0.044613
v 0.500000 1.626743 0.059604
v 0.500000 0.000000 0.446151
v -0.500000 0.000000 0.446151
v -0.500000 1.626743 0.059604
v -0.500000 5.419271 0.129498
v -0.500000 6.995883 0.129498
v 0.500000 6.995883 0.129498
v 0.500000 5.419271 0.129498
v -0.500000 5.452340 0.440405
v -0.500000 6.962814 0.892263
v 0.500000 6.962814 0.892263
v 0.500000 5.452340 0.440405
vt 0.0000 0.0000
vt 1.0000 0.0000
vt 1.0000 1.0000
vt 0.0000 1.0000
vt 0.0000 0.0000
vt 1.0000 0.0000
vt 1.0000 1.0000
vt 0.0000 1.0000
vt 0.0000 0.0000
vt 1.0000 0.0000
vt 1.0000 1.0000
vt 0.0000 1.0000
vt 0.0000 0.0000
vt 1.0000 0.0000
vt 1.0000 1.0000
vt 0.0000 1.0000
vt 1.0000 0.0000
vt 1.0000 1.0000
vt 0.0000 1.0000
vt 0.0000 0.0000
vt 1.0000 0.0000
vt 1.0000 1.0000
vt 0.0000 1.0000
vt 0.0000 0.0000
vt 1.0000 0.0000
vt 1.0000 1.0000
vt 0.0000 1.0000
vt 0.0000 0.0000
vt 1.0000 0.0000
vt 1.0000 1.0000
vt 0.0000 1.0000
vt 0.0000 0.0000
vt 1.0000 1.0000
vt 0.0000 1.0000
vt 1.0000 0.0000
vt 1.0000 1.0000
vt 0.0000 1.0000
vt 0.0000 0.0000
vt 1.0000 0.0000
vt 1.0000 1.0000
vt 0.0000 1.0000
vt 0.0000 0.0000
vt 1.0000 0.0000
vt 1.0000 1.0000
vt 0.0000 1.0000
vt 1.0000 1.0000
vt 0.0000 1.0000
vt 1.0000 1.0000
vt 0.0000 1.0000
vt 0.0000 0.0000
vt 1.0000 0.0000
vt 1.0000 1.0000
vt 0.0000 1.0000
vt 1.0000 0.0000
vt 1.0000 1.0000
vt 0.0000 1.0000
vt 1.0000 0.0000
vt 1.0000 1.0000
vt 0.0000 1.0000
vt 1.0000 1.0000
vt 0.0000 1.0000
vt 0.0000 0.0000
vt 1.0000 0.0000
vt 1.0000 1.0000
vt 0.0000 1.0000
vt 0.0000 0.0000
vt 1.0000 0.0000
vt 0.0000 1.0000
vt 0.0000 0.0000
vt 1.0000 0.0000
vt 1.0000 1.0000
vt 0.0000 0.0000
vt 1.0000 0.0000
vt 1.0000 1.0000
vt 0.0000 1.0000
vt 0.0000 0.0000
vt 1.0000 0.0000
vt 0.0000 1.0000
vt 0.0000 0.0000
vt 1.0000 0.0000
vt 1.0000 1.0000
vt 0.0000 1.0000
vt 0.0000 0.0000
vt 1.0000 0.0000
vt 1.0000 1.0000
vt 0.0000 1.0000
vt 0.0000 0.0000
vt 1.0000 0.0000
vt 1.0000 1.0000
vt 0.0000 0.0000
vt 1.0000 0.0000
vt 0.0000 1.0000
vt 0.0000 0.0000
vt 1.0000 0.0000
vt 0.0000 1.0000
vt 1.0000 1.0000
vt 0.0000 1.0000
vt 0.0000 0.0000
vt 1.0000 0.0000
vt 1.0000 1.0000
vt 0.0000 1.0000
vt 1.0000 1.0000
vt 0.0000 1.0000
vt 0.0000 0.0000
vt 1.0000 1.0000
vt 0.0000 0.0000
vt 1.0000 1.0000
vt 0.0000 1.0000
vt 1.0000 1.0000
vt 0.0000 0.0000
vt 1.0000 0.0000
vt 1.0000 1.0000
vt 0.0000 0.0000
vt 1.0000 0.0000
vt 0.0000 1.0000
vt 1.0000 0.0000
vt 0.0000 1.0000
vt 0.0000 0.0000
vt 1.0000 0.0000
vt 1.0000 1.0000
vt 0.0000 1.0000
vt 1.0000 1.0000
vt 0.0000 1.0000
vt 0.0000 0.0000
vt 1.0000 1.0000
vt 0.0000 1.0000
vt 0.0000 0.0000
vt 1.0000 0.0000
vt 1.0000 1.0000
vt 0.0000 1.0000
vt 0.0000 0.0000
vt 1.0000 1.0000
vt 0.0000 0.0000
vt 1.0000 0.0000
vt 1.0000 1.0000
vt 0.0000 1.0000
vt 0.0000 1.0000
vt 1.0000 1.0000
vt 0.0000 1.0000
vt 1.0000 1.0000
vt 0.0000 0.0000
vt 1.0000 0.0000
vt 1.0000 1.0000
vt 0.0000 1.0000
vt 1.0000 1.0000
vt 0.0000 1.0000
vt 1.0000 1.0000
vt 0.0000 1.0000
vt 1.0000 1.0000
vt 0.0000 1.0000
vt 0.0000 0.0000
vt 1.0000 0.0000
vt 0.0000 1.0000
vt 0.0000 0.0000
vt 1.0000 0.0000
vt 1.0000 1.0000
vt 0.0000 0.0000
vt 1.0000 0.0000
vt 1.0000 1.0000
vt 0.0000 1.0000
vt 0.0000 0.0000
vt 1.0000 0.0000
vt 1.0000 1.0000
vt 0.0000 1.0000
vn 0.0000 0.1422 0.9898
vn 0.0000 0.0000 -1.0000
vn 1.0000 -0.0000 0.0000
vn 0.0000 -1.0000 0.0000
vn 0.0000 1.0000 0.0000
vn -0.2561 -0.0411 0.9658
vn 0.2882 0.0000 -0.9576
vn -0.7089 0.0838 0.7003
vn 0.9894 0.1450 0.0055
vn 0.0000 0.9980 0.0636
vn -1.0000 0.0000 0.0000
vn 0.0966 -0.9951 -0.0184
vn -0.9894 0.1450 0.0055
vn 0.9929 0.1174 -0.0175
vn -0.0487 -0.9988 0.0000
vn 0.9191 -0.3932 -0.0251
vn -0.0097 -0.0861 -0.9962
vn -0.9191 -0.3932 -0.0251
vn 0.2561 -0.0411 0.9658
vn 0.0097 -0.0861 -0.9962
vn -0.2882 0.0000 -0.9576
vn 0.6642 -0.7475 0.0000
vn -0.6642 -0.7475 0.0000
vn 0.0097 -0.0861 0.9962
vn 0.5280 -0.8492 0.0000
vn -0.5280 -0.8492 0.0000
vn -0.0097 -0.0861 0.9962
vn -0.0000 0.2312 0.9729
vn 0.0000 0.9992 0.0395
vn 0.0000 -0.0792 0.9969
vn 0.0000 -0.2866 0.9581
vn 0.0000 -0.9944 0.1058
vn 0.0000 0.9991 0.0433
usemtl None
s off
f 1/1/1 9/2/1 20/3/1 14/4/1
f 3/5/2 10/6/2 11/7/2 7/8/2
f 10/9/2 3/10/2 13/11/2 15/12/2
f 5/13/3 12/14/3 45/15/3 46/16/3
f 3/5/4 7/17/4 5/18/4 1/19/4
f 8/20/5 4/21/5 2/22/5 6/23/5
f 12/24/3 6/25/3 51/26/3 52/27/3
f 9/28/6 2/29/6 30/30/6 29/31/6
f 11/32/2 10/6/2 4/33/2 8/34/2
f 11/32/7 8/35/7 32/36/7 35/37/7
f 14/38/8 20/39/8 28/40/8 22/41/8
f 16/42/9 19/43/9 27/44/9 24/45/9
f 11/32/10 12/14/10 19/46/10 16/47/10
f 9/28/10 10/6/10 15/48/10 20/49/10
f 7/50/2 11/51/2 16/52/2 17/53/2
f 3/5/4 1/54/4 14/55/4 13/56/4
f 12/24/1 5/57/1 18/58/1 19/59/1
f 5/13/4 7/17/4 17/60/4 18/61/4
f 22/62/11 28/63/11 23/64/11 21/65/11
f 25/66/3 24/67/3 27/44/3 26/68/3
f 18/69/12 17/70/12 25/71/12 26/68/12
f 15/72/2 13/73/2 21/74/2 23/75/2
f 20/76/13 15/77/13 23/64/13 28/78/13
f 19/79/14 18/80/14 26/81/14 27/82/14
f 17/83/2 16/84/2 24/85/2 25/86/2
f 13/87/15 14/88/15 22/89/15 21/65/15
f 34/90/11 29/91/11 30/30/11 31/92/11
f 36/93/3 35/94/3 32/36/3 33/95/3
f 12/24/16 11/51/16 35/96/16 36/97/16
f 4/98/17 31/99/17 42/100/17 38/101/17
f 10/9/18 9/2/18 29/102/18 34/103/18
f 6/104/19 12/14/19 36/105/19 33/95/19
f 32/106/20 8/35/20 39/107/20 43/108/20
f 4/98/21 10/6/21 34/109/21 31/92/21
f 39/110/22 40/111/22 44/112/22 43/108/22
f 37/113/23 38/114/23 42/100/23 41/115/23
f 6/104/24 33/116/24 44/112/24 40/117/24
f 33/118/25 32/119/25 43/120/25 44/121/25
f 8/20/5 6/25/5 40/122/5 39/123/5
f 2/124/5 4/21/5 38/125/5 37/126/5
f 31/127/26 30/128/26 41/129/26 42/130/26
f 30/131/27 2/29/27 37/132/27 41/115/27
f 46/133/28 45/134/28 48/135/28 47/136/28
f 12/24/5 9/2/5 48/135/5 45/137/5
f 9/28/11 1/54/11 47/138/11 48/139/11
f 1/1/4 5/57/4 46/140/4 47/136/4
f 52/141/3 51/142/3 55/143/3 56/144/3
f 6/104/29 2/29/29 50/145/29 51/146/29
f 9/28/30 12/14/30 52/147/30 49/148/30
f 2/124/11 9/2/11 49/149/11 50/150/11
f 53/151/31 56/152/31 55/143/31 54/153/31
f 50/154/11 49/155/11 53/156/11 54/153/11
f 49/157/32 52/158/32 56/159/32 53/160/32
f 51/161/33 50/162/33 54/163/33 55/164/33
