# Blender v2.78 (sub 0) OBJ File: 'R3_Wall.blend'
# www.blender.org
mtllib R3_Wall.mtl
o Cube.001
v -0.343263 0.076508 0.581092
v -0.500000 5.538660 0.581092
v -0.343263 0.076508 -0.581092
v -0.500000 5.538660 -0.581092
v 0.343263 0.076508 0.581092
v 0.500000 5.538660 0.581092
v 0.343263 0.076508 -0.581092
v 0.500000 5.538660 -0.581092
v -0.343263 0.550034 0.581092
v -0.343263 0.579619 -0.581092
v 0.343263 0.579620 -0.581092
v 0.343263 0.550034 0.581092
v -0.686526 0.076508 -0.581092
v -0.686526 0.076508 0.581092
v -0.686526 0.579619 -0.581092
v 0.686526 0.579620 -0.581092
v 0.686526 0.076508 -0.581092
v 0.686526 0.076508 0.581092
v 0.686526 0.550034 0.581092
v -0.686526 0.550034 0.581092
v -0.869562 0.084510 -0.581092
v -0.869562 0.084510 0.581092
v -0.869562 0.369216 -0.581092
v 0.869923 0.369216 -0.581092
v 0.869923 0.084510 -0.581092
v 0.869923 0.084510 0.581092
v 0.869923 0.363746 0.581092
v -0.869562 0.363746 0.581092
v -0.732255 1.058251 0.418635
v -0.732255 4.667732 0.418635
v -0.732255 4.667732 -0.418635
v 0.732255 4.667732 -0.418635
v 0.732255 4.667732 0.418635
v -0.732255 1.079565 -0.418635
v 0.732255 1.079566 -0.418635
v 0.732255 1.058251 0.418635
v -1.879328 5.538660 0.581092
v -1.879328 5.538660 -0.581092
v 1.879328 5.538660 -0.581092
v 1.879328 5.538660 0.581092
v -1.036534 4.843390 0.418635
v -1.036534 4.843390 -0.418635
v 1.036534 4.843390 -0.418635
v 1.036534 4.843390 0.418635
v -1.389686 0.085320 -0.581092
v -1.389686 0.085320 0.581092
v -1.078104 0.227672 -0.581092
v -1.084091 0.224937 0.581092
v 1.118621 0.220883 -0.581092
v 1.430203 0.078530 -0.581092
v 1.430203 0.078530 0.581092
v 1.124607 0.218148 0.581092
vt 0.7714 0.6152
vt 0.7714 0.7825
vt 0.7200 0.7825
vt 0.7200 0.6152
vt 0.3582 0.4469
vt 0.5288 0.4469
vt 0.5288 0.5497
vt 0.3582 0.5497
vt 0.7086 0.4459
vt 0.7086 0.2754
vt 0.7600 0.2754
vt 0.7600 0.4459
vt 0.6326 0.4469
vt 0.6326 0.6142
vt 0.5297 0.6142
vt 0.5297 0.4469
vt 0.8083 0.1033
vt 0.7055 0.1033
vt 0.7055 0.0005
vt 0.8083 0.0005
vt 0.3572 0.7893
vt 0.2544 0.7893
vt 0.2544 0.6864
vt 0.3572 0.6864
vt 0.0005 0.0005
vt 0.1033 0.0005
vt 0.1033 0.5531
vt 0.0005 0.5531
vt 0.2360 0.4013
vt 0.2360 0.9539
vt 0.2081 0.8574
vt 0.2081 0.4576
vt 0.1043 0.0005
vt 0.2071 0.0005
vt 0.2071 0.5498
vt 0.1043 0.5498
vt 0.7190 0.4469
vt 0.7190 0.9962
vt 0.6912 0.8998
vt 0.6912 0.5023
vt 0.3572 0.4013
vt 0.3572 0.5686
vt 0.2544 0.4357
vt 0.2544 0.4022
vt 0.4619 0.1706
vt 0.3590 0.1685
vt 0.3582 0.0005
vt 0.4610 0.0005
vt 0.8124 0.2754
vt 0.8124 0.3783
vt 0.7610 0.3783
vt 0.7610 0.2754
vt 0.7724 0.5498
vt 0.7724 0.4469
vt 0.8238 0.4469
vt 0.8238 0.5498
vt 0.2071 0.5508
vt 0.2071 0.7214
vt 0.1557 0.7214
vt 0.1557 0.5508
vt 0.7734 0.1626
vt 0.6706 0.1626
vt 0.6706 0.1111
vt 0.7734 0.1111
vt 0.7200 0.6142
vt 0.7200 0.4469
vt 0.7714 0.4469
vt 0.7714 0.6142
vt 0.5297 0.7321
vt 0.6326 0.7321
vt 0.6326 0.7835
vt 0.5297 0.7835
vt 0.5648 0.3104
vt 0.5648 0.2763
vt 0.5648 0.2763
vt 0.5648 0.3104
vt 0.7754 0.2744
vt 0.7754 0.1715
vt 0.7754 0.1715
vt 0.7754 0.2744
vt 0.6726 0.2744
vt 0.6726 0.1715
vt 0.4620 0.4459
vt 0.4620 0.2754
vt 0.5262 0.1715
vt 0.5288 0.2744
vt 0.3587 0.2744
vt 0.3582 0.1715
vt 0.4628 0.1678
vt 0.4629 0.0005
vt 0.5658 0.0015
vt 0.5657 0.0349
vt 0.4610 0.2754
vt 0.4610 0.4459
vt 0.3582 0.3104
vt 0.3582 0.2763
vt 0.1033 0.6579
vt 0.1033 0.7607
vt 0.0005 0.7607
vt 0.0005 0.6579
vt 0.2081 0.0028
vt 0.2822 0.0005
vt 0.2822 0.4003
vt 0.2081 0.4003
vt 0.2831 0.0005
vt 0.3572 0.0028
vt 0.3572 0.4003
vt 0.2831 0.4003
vt 0.5667 0.1019
vt 0.6696 0.1019
vt 0.6570 0.1626
vt 0.5829 0.1626
vt 0.7045 0.0005
vt 0.7045 0.1009
vt 0.6694 0.0897
vt 0.5667 0.0340
vt 0.6687 0.4346
vt 0.5658 0.4346
vt 0.5819 0.3739
vt 0.6561 0.3739
vt 0.6335 0.9995
vt 0.6335 0.4469
vt 0.6614 0.5032
vt 0.6614 0.9030
vt 0.3582 0.7549
vt 0.3582 0.6545
vt 0.4960 0.6880
vt 0.3933 0.7437
vt 0.6623 0.9962
vt 0.6623 0.4469
vt 0.6902 0.5023
vt 0.6902 0.8998
vt 0.3572 0.6855
vt 0.2544 0.6855
vt 0.2687 0.5695
vt 0.3428 0.5695
vt 0.5297 0.6152
vt 0.6326 0.6152
vt 0.6182 0.7311
vt 0.5441 0.7311
vt 0.5298 0.2691
vt 0.5535 0.1715
vt 0.5849 0.1908
vt 0.6716 0.2691
vt 0.1330 0.7223
vt 0.2071 0.7223
vt 0.2071 0.7592
vt 0.1330 0.7592
vt 0.3582 0.6535
vt 0.3582 0.5507
vt 0.5000 0.5507
vt 0.5000 0.6535
vt 0.1423 0.5541
vt 0.1423 0.6569
vt 0.0005 0.6569
vt 0.0005 0.5541
vt 0.2071 0.7970
vt 0.1330 0.7970
vt 0.1330 0.7601
vt 0.2071 0.7601
vt 0.6839 0.2754
vt 0.7076 0.3729
vt 0.5658 0.3729
vt 0.6525 0.2946
vt 0.0005 0.7958
vt 0.0005 0.7623
vt 0.1033 0.7617
vt 0.1033 0.7958
vt 0.3587 0.2744
vt 0.3582 0.1715
vt 0.0005 0.7607
vt 0.0005 0.6579
vt 0.2544 0.4357
vt 0.2544 0.4022
vt 0.4610 0.7559
vt 0.4610 0.7900
vt 0.3582 0.7893
vt 0.3582 0.7559
vt 0.5658 0.0015
vt 0.5657 0.0349
vt 0.3582 0.3104
vt 0.3582 0.2763
vt 0.3582 0.0005
vt 0.4610 0.0005
vn 0.0000 0.0000 1.0000
vn 0.0000 0.0000 -1.0000
vn 0.0000 -1.0000 0.0000
vn 0.0000 1.0000 0.0000
vn -0.4596 -0.0084 0.8881
vn 0.4595 -0.0084 -0.8882
vn 0.7342 0.6789 0.0102
vn 0.0000 0.9997 0.0254
vn -0.0107 -0.9999 0.0000
vn 0.0436 -0.9990 0.0000
vn -0.7349 0.6781 0.0102
vn -0.0437 -0.9990 0.0000
vn -1.0000 0.0000 0.0000
vn 1.0000 0.0000 0.0000
vn 0.7916 -0.6109 -0.0156
vn -0.0220 -0.2113 -0.9772
vn -0.7916 -0.6109 -0.0156
vn 0.4596 -0.0084 0.8881
vn 0.0220 -0.2113 -0.9772
vn -0.4595 -0.0084 -0.8882
vn 0.6364 -0.7714 0.0000
vn -0.6364 -0.7714 0.0000
vn 0.0220 -0.2113 0.9772
vn 0.5000 -0.8660 0.0000
vn -0.5000 -0.8660 0.0000
vn -0.0220 -0.2113 0.9772
vn -0.4156 0.9096 -0.0000
vn -0.5524 0.8336 0.0015
vn -0.0016 -1.0000 0.0000
vn 0.4156 0.9096 0.0000
vn 0.5042 0.8636 0.0017
usemtl None
s off
f 1/1/1 9/2/1 20/3/1 14/4/1
f 3/5/2 10/6/2 11/7/2 7/8/2
f 10/9/2 3/10/2 13/11/2 15/12/2
f 5/13/1 12/14/1 9/15/1 1/16/1
f 3/17/3 7/18/3 5/19/3 1/20/3
f 8/21/4 4/22/4 2/23/4 6/24/4
f 9/25/1 12/26/1 6/27/1 2/28/1
f 9/29/5 2/30/5 30/31/5 29/32/5
f 11/33/2 10/34/2 4/35/2 8/36/2
f 11/37/6 8/38/6 32/39/6 35/40/6
f 14/41/1 20/42/1 28/43/1 22/44/1
f 16/45/7 19/46/7 27/47/7 24/48/7
f 11/49/8 12/50/8 19/51/8 16/52/8
f 9/53/8 10/54/8 15/55/8 20/56/8
f 7/57/2 11/58/2 16/59/2 17/60/2
f 3/61/3 1/62/3 14/63/3 13/64/3
f 12/65/1 5/66/1 18/67/1 19/68/1
f 5/69/3 7/70/3 17/71/3 18/72/3
f 23/73/2 21/74/2 45/75/2 47/76/2
f 26/77/9 25/78/9 50/79/9 51/80/9
f 18/81/10 17/82/10 25/78/10 26/77/10
f 15/83/2 13/84/2 21/74/2 23/73/2
f 20/85/11 15/86/11 23/87/11 28/88/11
f 19/89/1 18/90/1 26/91/1 27/92/1
f 17/93/2 16/94/2 24/95/2 25/96/2
f 13/97/12 14/98/12 22/99/12 21/100/12
f 34/101/13 29/102/13 30/103/13 31/104/13
f 36/105/14 35/106/14 32/107/14 33/108/14
f 12/109/15 11/110/15 35/111/15 36/112/15
f 4/113/16 31/114/16 42/115/16 38/116/16
f 10/117/17 9/118/17 29/119/17 34/120/17
f 6/121/18 12/122/18 36/123/18 33/124/18
f 32/125/19 8/126/19 39/127/19 43/128/19
f 4/129/20 10/130/20 34/131/20 31/132/20
f 39/133/21 40/134/21 44/135/21 43/136/21
f 37/137/22 38/138/22 42/139/22 41/140/22
f 6/141/23 33/142/23 44/143/23 40/144/23
f 33/145/24 32/146/24 43/147/24 44/148/24
f 8/149/4 6/150/4 40/151/4 39/152/4
f 2/153/4 4/154/4 38/155/4 37/156/4
f 31/157/25 30/158/25 41/159/25 42/160/25
f 30/161/26 2/162/26 37/163/26 41/164/26
f 46/165/27 48/166/27 47/167/27 45/168/27
f 28/88/28 23/87/28 47/169/28 48/170/28
f 21/100/29 22/99/29 46/171/29 45/172/29
f 22/44/1 28/43/1 48/173/1 46/174/1
f 50/175/30 49/176/30 52/177/30 51/178/30
f 27/92/1 26/91/1 51/179/1 52/180/1
f 25/96/2 24/95/2 49/181/2 50/182/2
f 24/48/31 27/47/31 52/183/31 49/184/31
