# Blender v2.78 (sub 0) OBJ File: 'R1_Corner.blend'
# www.blender.org
mtllib R1_Corner.mtl
o Cube
v 0.998905 0.053818 -0.348635
v 0.998905 0.053818 0.348635
v 0.634959 -0.044070 0.348635
v 0.634959 -0.044070 -0.348635
v 0.481267 1.992981 -0.348635
v 0.481267 1.992981 0.348635
v 0.117321 1.895093 0.348635
v 0.117321 1.895093 -0.348635
v 0.746505 1.874624 0.379056
v 0.746505 1.874624 1.076326
v 0.369721 1.874624 1.076326
v 0.369721 1.874624 0.379056
v 0.746505 3.882192 0.379056
v 0.746505 3.882192 1.076326
v 0.369721 3.882192 1.076326
v 0.369721 3.882192 0.379056
v 0.481267 2.860580 -0.356704
v 0.481267 2.860580 0.340567
v 0.117321 2.958468 0.340567
v 0.117321 2.958468 -0.356704
v 0.998905 4.799743 -0.356703
v 0.998905 4.799743 0.340567
v 0.634959 4.897631 0.340567
v 0.634959 4.897631 -0.356704
v 0.228891 3.553080 0.382347
v 0.228891 3.553080 1.079617
v -0.097414 3.742185 1.079617
v -0.097413 3.742185 0.382346
v 1.394039 5.698586 0.382347
v 1.394039 5.698586 1.079617
v 1.067734 5.887691 1.079617
v 1.067734 5.887691 0.382347
v 0.514083 3.599375 -0.738298
v 0.514083 3.599375 0.177946
v 0.048831 3.769354 0.177946
v 0.048831 3.769354 -0.738299
v 1.412943 6.078317 -0.738298
v 1.412942 6.078317 0.177946
v 0.947690 6.248295 0.177946
v 0.947690 6.248295 -0.738298
v 0.405967 1.332537 -0.539209
v 0.405967 1.332537 0.377035
v -0.089144 1.332537 0.377035
v -0.089144 1.332537 -0.539210
v 0.405967 3.970571 -0.539209
v 0.405967 3.970571 0.377035
v -0.089144 3.970571 0.377035
v -0.089144 3.970571 -0.539209
v -0.864349 0.053818 0.711749
v -0.864349 0.053818 0.014478
v -0.500403 -0.044070 0.014479
v -0.500403 -0.044070 0.711749
v -0.346711 1.992981 0.711748
v -0.346711 1.992981 0.014478
v 0.017235 1.895093 0.014478
v 0.017235 1.895093 0.711748
v -0.611949 1.874624 -0.015943
v -0.611949 1.874624 -0.713213
v -0.235165 1.874624 -0.713213
v -0.235165 1.874624 -0.015942
v -0.611949 3.882192 -0.015943
v -0.611949 3.882192 -0.713213
v -0.235165 3.882192 -0.713213
v -0.235165 3.882192 -0.015943
v -0.346711 2.860580 0.719817
v -0.346711 2.860580 0.022547
v 0.017235 2.958468 0.022547
v 0.017235 2.958468 0.719817
v -0.864349 4.799743 0.719817
v -0.864349 4.799743 0.022547
v -0.500403 4.897631 0.022547
v -0.500403 4.897631 0.719817
v -0.259483 3.959980 -0.019233
v -0.259483 3.959980 -0.716503
v 0.066821 4.149085 -0.716503
v 0.066821 4.149085 -0.019233
v -1.259483 5.698586 -0.019233
v -1.259483 5.698586 -0.716503
v -0.933178 5.887691 -0.716503
v -0.933178 5.887691 -0.019233
v -0.379527 3.599375 1.101412
v -0.379527 3.599375 0.185168
v 0.085725 3.769354 0.185168
v 0.085725 3.769354 1.101412
v -1.278387 6.078317 1.101412
v -1.278387 6.078317 0.185168
v -0.813134 6.248295 0.185168
v -0.813134 6.248295 1.101412
v -0.271411 1.332537 0.902323
v -0.271411 1.332537 -0.013921
v 0.223700 1.332537 -0.013921
v 0.223700 1.332537 0.902323
v -0.271412 3.970571 0.902323
v -0.271411 3.970571 -0.013921
v 0.223700 3.970571 -0.013921
v 0.223700 3.970571 0.902323
v 0.671861 -0.009028 0.341388
v 0.671861 -0.009028 1.038658
v 0.296511 -0.041991 1.038658
v 0.296511 -0.041991 0.341387
v 0.497550 1.990902 0.341388
v 0.497550 1.990902 1.038658
v 0.122199 1.957939 1.038658
v 0.122199 1.957939 0.341388
v 0.526513 -0.391550 -0.880022
v 0.526513 -0.391550 0.088449
v 0.005171 -0.437334 0.088449
v 0.005171 -0.437334 -0.880022
v 0.284403 2.386246 -0.880022
v 0.284403 2.386246 0.088450
v -0.236939 2.340461 0.088449
v -0.236939 2.340461 -0.880022
v -0.359975 0.053818 1.592824
v -0.853019 0.053818 1.099780
v -0.595671 -0.044070 0.842431
v -0.102626 -0.044070 1.335476
v 0.006050 1.992981 1.226799
v -0.486994 1.992981 0.733754
v -0.229645 1.895093 0.476406
v 0.263399 1.895093 0.969450
v 1.346652 -0.026681 1.116754
v 0.725174 -0.026681 1.738232
v 0.400789 -0.150068 1.413847
v 1.022267 -0.150068 0.792369
v 0.885280 2.417614 0.655383
v 0.263802 2.417614 1.276861
v -0.060583 2.294228 0.952475
v 0.560895 2.294228 0.330998
v 0.341678 0.319367 1.806017
v -0.084943 0.319367 1.806017
v -0.084943 0.185959 1.617934
v 0.341678 0.185959 1.617934
v 0.341678 1.322333 1.097452
v -0.084943 1.322333 1.097452
v -0.084943 1.188925 0.909370
v 0.341678 1.188925 0.909370
v 0.378109 0.224849 2.204425
v -0.203646 0.224849 2.175674
v -0.197639 -0.065506 2.054127
v 0.384116 -0.065506 2.082878
v 0.454374 0.875855 0.661260
v -0.127381 0.875855 0.632509
v -0.121373 0.585501 0.510961
v 0.460381 0.585501 0.539712
v 2.114023 0.224849 0.126863
v 2.085272 0.224849 0.708618
v 1.963724 -0.065506 0.702610
v 1.992476 -0.065506 0.120856
v 0.570858 0.875855 0.050598
v 0.542107 0.875855 0.632352
v 0.420559 0.585501 0.626345
v 0.449310 0.585501 0.044591
vt 0.9495 0.6717
vt 0.8874 0.6717
vt 0.8874 0.6381
vt 0.9495 0.6381
vt 0.0521 0.9158
vt 0.0856 0.9158
vt 0.0856 0.9778
vt 0.0521 0.9778
vt 0.4891 0.4532
vt 0.4891 0.6312
vt 0.4271 0.6312
vt 0.4271 0.4532
vt 0.1019 0.4856
vt 0.1019 0.6636
vt 0.0684 0.6636
vt 0.0684 0.4856
vt 0.1658 0.4856
vt 0.1658 0.6636
vt 0.1038 0.6636
vt 0.1038 0.4856
vt 0.7627 0.4146
vt 0.7627 0.2366
vt 0.7962 0.2366
vt 0.7962 0.4146
vt 0.8577 0.9722
vt 0.7956 0.9722
vt 0.7956 0.9387
vt 0.8577 0.9387
vt 0.3327 0.9242
vt 0.3662 0.9242
vt 0.3662 0.9862
vt 0.3327 0.9862
vt 0.7608 0.0009
vt 0.7608 0.1789
vt 0.6988 0.1789
vt 0.6988 0.0009
vt 0.9458 0.2580
vt 0.9458 0.4360
vt 0.9123 0.4360
vt 0.9123 0.2580
vt 0.7608 0.2580
vt 0.7608 0.4360
vt 0.6988 0.4360
vt 0.6988 0.2580
vt 0.9017 0.8515
vt 0.9017 0.6735
vt 0.9353 0.6735
vt 0.9353 0.8515
vt 0.8930 0.8909
vt 0.8310 0.8909
vt 0.8310 0.8574
vt 0.8930 0.8574
vt 0.0167 0.9158
vt 0.0503 0.9158
vt 0.0503 0.9778
vt 0.0167 0.9778
vt 0.6331 0.0009
vt 0.6331 0.1789
vt 0.5710 0.1789
vt 0.5710 0.0009
vt 0.8397 0.2580
vt 0.8397 0.4360
vt 0.8061 0.4360
vt 0.8061 0.2580
vt 0.7938 0.4378
vt 0.7938 0.6158
vt 0.7317 0.6158
vt 0.7317 0.4378
vt 0.9371 0.8515
vt 0.9371 0.6735
vt 0.9706 0.6735
vt 0.9706 0.8515
vt 0.7468 0.9943
vt 0.6848 0.9943
vt 0.6848 0.9608
vt 0.7468 0.9608
vt 0.7220 0.1941
vt 0.7555 0.1941
vt 0.7555 0.2562
vt 0.7220 0.2562
vt 0.5692 0.2194
vt 0.5692 0.4360
vt 0.5071 0.4360
vt 0.5071 0.2194
vt 0.8880 0.0009
vt 0.8880 0.2175
vt 0.8545 0.2183
vt 0.8545 0.0017
vt 0.5692 0.0009
vt 0.5692 0.2175
vt 0.5071 0.2175
vt 0.5071 0.0009
vt 0.7956 0.8901
vt 0.7956 0.6735
vt 0.8291 0.6743
vt 0.8291 0.8909
vt 0.8771 0.9368
vt 0.7956 0.9368
vt 0.7956 0.8928
vt 0.8771 0.8928
vt 0.9476 0.2580
vt 0.9917 0.2580
vt 0.9917 0.3395
vt 0.9476 0.3395
vt 0.0824 0.2499
vt 0.0824 0.4838
vt 0.0009 0.4838
vt 0.0009 0.2499
vt 0.8397 0.4378
vt 0.8397 0.6717
vt 0.7956 0.6717
vt 0.7956 0.4378
vt 0.4252 0.0009
vt 0.4252 0.2348
vt 0.3437 0.2348
vt 0.3437 0.0009
vt 0.2229 0.8859
vt 0.2229 0.6521
vt 0.2669 0.6521
vt 0.2669 0.8859
vt 0.2585 0.9318
vt 0.1770 0.9318
vt 0.1770 0.8878
vt 0.2585 0.8878
vt 0.5105 0.8985
vt 0.5545 0.8985
vt 0.5545 0.9800
vt 0.5105 0.9800
vt 0.1658 0.2499
vt 0.1658 0.4838
vt 0.0843 0.4838
vt 0.0843 0.2499
vt 0.8856 0.4378
vt 0.8856 0.6717
vt 0.8415 0.6717
vt 0.8415 0.4378
vt 0.4252 0.2366
vt 0.4252 0.4704
vt 0.3437 0.4704
vt 0.3437 0.2366
vt 0.8086 0.2348
vt 0.8086 0.0009
vt 0.8526 0.0009
vt 0.8526 0.2348
vt 0.8545 0.2202
vt 0.9165 0.2202
vt 0.9165 0.2537
vt 0.8545 0.2537
vt 0.9837 0.9792
vt 0.9501 0.9792
vt 0.9501 0.9172
vt 0.9837 0.9172
vt 0.6660 0.4378
vt 0.6660 0.6158
vt 0.6040 0.6158
vt 0.6040 0.4378
vt 0.9104 0.2580
vt 0.9104 0.4360
vt 0.8769 0.4360
vt 0.8769 0.2580
vt 0.6331 0.2580
vt 0.6331 0.4360
vt 0.5710 0.4360
vt 0.5710 0.2580
vt 0.5071 0.8648
vt 0.5071 0.6868
vt 0.5407 0.6868
vt 0.5407 0.8648
vt 0.4271 0.9444
vt 0.4891 0.9444
vt 0.4891 0.9779
vt 0.4271 0.9779
vt 0.9837 0.9153
vt 0.9501 0.9153
vt 0.9501 0.8533
vt 0.9837 0.8533
vt 0.7938 0.6176
vt 0.7938 0.7956
vt 0.7317 0.7956
vt 0.7317 0.6176
vt 0.9587 0.0009
vt 0.9587 0.1789
vt 0.9252 0.1789
vt 0.9252 0.0009
vt 0.7299 0.4378
vt 0.7299 0.6158
vt 0.6678 0.6158
vt 0.6678 0.4378
vt 0.9228 0.6158
vt 0.9228 0.4378
vt 0.9563 0.4378
vt 0.9563 0.6158
vt 0.2688 0.9242
vt 0.3308 0.9242
vt 0.3308 0.9577
vt 0.2688 0.9577
vt 0.1210 0.9778
vt 0.0875 0.9778
vt 0.0875 0.9158
vt 0.1210 0.9158
vt 0.2390 0.4723
vt 0.2390 0.6502
vt 0.1770 0.6502
vt 0.1770 0.4723
vt 0.8645 0.6735
vt 0.8645 0.8515
vt 0.8310 0.8515
vt 0.8310 0.6735
vt 0.6660 0.6176
vt 0.6660 0.7956
vt 0.6040 0.7956
vt 0.6040 0.6176
vt 0.8898 0.1789
vt 0.8898 0.0009
vt 0.9234 0.0009
vt 0.9234 0.1789
vt 0.2688 0.9595
vt 0.3308 0.9595
vt 0.3308 0.9931
vt 0.2688 0.9931
vt 0.9519 0.2537
vt 0.9184 0.2537
vt 0.9184 0.1917
vt 0.9519 0.1917
vt 0.3029 0.4723
vt 0.3029 0.6502
vt 0.2409 0.6502
vt 0.2409 0.4723
vt 0.6375 0.7974
vt 0.6375 0.9754
vt 0.6040 0.9754
vt 0.6040 0.7974
vt 0.7299 0.6176
vt 0.7299 0.7956
vt 0.6678 0.7956
vt 0.6678 0.6176
vt 0.3686 0.8859
vt 0.3686 0.7080
vt 0.4022 0.7080
vt 0.4022 0.8859
vt 0.4271 0.8985
vt 0.5086 0.8985
vt 0.5086 0.9425
vt 0.4271 0.9425
vt 0.4127 0.9693
vt 0.3686 0.9693
vt 0.3686 0.8878
vt 0.4127 0.8878
vt 0.3419 0.2366
vt 0.3419 0.4704
vt 0.2603 0.4704
vt 0.2603 0.2366
vt 0.8067 0.0009
vt 0.8067 0.2348
vt 0.7627 0.2348
vt 0.7627 0.0009
vt 0.2585 0.0009
vt 0.2585 0.2348
vt 0.1770 0.2348
vt 0.1770 0.0009
vt 0.4271 0.8669
vt 0.4271 0.6330
vt 0.4711 0.6330
vt 0.4711 0.8669
vt 0.2688 0.8783
vt 0.3503 0.8783
vt 0.3503 0.9223
vt 0.2688 0.9223
vt 0.6004 0.9800
vt 0.5564 0.9800
vt 0.5564 0.8985
vt 0.6004 0.8985
vt 0.2585 0.2366
vt 0.2585 0.4704
vt 0.1770 0.4704
vt 0.1770 0.2366
vt 0.2210 0.6521
vt 0.2210 0.8859
vt 0.1770 0.8859
vt 0.1770 0.6521
vt 0.3419 0.0009
vt 0.3419 0.2348
vt 0.2603 0.2348
vt 0.2603 0.0009
vt 0.3686 0.7061
vt 0.3686 0.4723
vt 0.4127 0.4723
vt 0.4127 0.7061
vt 0.2390 0.9672
vt 0.1770 0.9672
vt 0.1770 0.9337
vt 0.2390 0.9337
vt 0.9476 0.3414
vt 0.9812 0.3414
vt 0.9812 0.4034
vt 0.9476 0.4034
vt 0.3668 0.4723
vt 0.3668 0.6502
vt 0.3047 0.6502
vt 0.3047 0.4723
vt 0.9209 0.4378
vt 0.9209 0.6158
vt 0.8874 0.6158
vt 0.8874 0.4378
vt 0.6969 0.0009
vt 0.6969 0.1789
vt 0.6349 0.1789
vt 0.6349 0.0009
vt 0.5686 0.8648
vt 0.5686 0.6868
vt 0.6021 0.6868
vt 0.6021 0.8648
vt 0.7710 0.9236
vt 0.6848 0.9236
vt 0.6848 0.8770
vt 0.7710 0.8770
vt 0.9017 0.8533
vt 0.9483 0.8533
vt 0.9483 0.9395
vt 0.9017 0.9395
vt 0.0871 0.0009
vt 0.0871 0.2481
vt 0.0009 0.2481
vt 0.0009 0.0009
vt 0.5537 0.4378
vt 0.5537 0.6850
vt 0.5071 0.6850
vt 0.5071 0.4378
vt 0.1751 0.0009
vt 0.1751 0.2481
vt 0.0889 0.2481
vt 0.0889 0.0009
vt 0.5555 0.6850
vt 0.5555 0.4378
vt 0.6021 0.4378
vt 0.6021 0.6850
vt 0.7468 0.9590
vt 0.6848 0.9590
vt 0.6848 0.9254
vt 0.7468 0.9254
vt 0.1228 0.9158
vt 0.1564 0.9158
vt 0.1564 0.9778
vt 0.1228 0.9778
vt 0.0630 0.4856
vt 0.0630 0.6636
vt 0.0009 0.6636
vt 0.0009 0.4856
vt 0.8999 0.6735
vt 0.8999 0.8515
vt 0.8664 0.8515
vt 0.8664 0.6735
vt 0.6969 0.2580
vt 0.6969 0.4360
vt 0.6349 0.4360
vt 0.6349 0.2580
vt 0.8415 0.4360
vt 0.8415 0.2580
vt 0.8750 0.2580
vt 0.8750 0.4360
vt 0.6407 0.8756
vt 0.6407 0.7974
vt 0.6829 0.7974
vt 0.6829 0.8756
vt 0.6829 0.9557
vt 0.6407 0.9557
vt 0.6407 0.8775
vt 0.6829 0.8775
vt 0.5053 0.0009
vt 0.5053 0.2252
vt 0.4271 0.2252
vt 0.4271 0.0009
vt 0.3110 0.6521
vt 0.3110 0.8764
vt 0.2688 0.8764
vt 0.2688 0.6521
vt 0.5053 0.2271
vt 0.5053 0.4514
vt 0.4271 0.4514
vt 0.4271 0.2271
vt 0.3129 0.8764
vt 0.3129 0.6521
vt 0.3551 0.6521
vt 0.3551 0.8764
vt 0.4245 0.7080
vt 0.4245 0.7459
vt 0.4040 0.7459
vt 0.4040 0.7080
vt 0.6090 0.1807
vt 0.6090 0.2012
vt 0.5710 0.2012
vt 0.5710 0.1807
vt 0.6848 0.7974
vt 0.7938 0.7974
vt 0.7938 0.8354
vt 0.6848 0.8354
vt 0.4935 0.6330
vt 0.4935 0.7420
vt 0.4730 0.7421
vt 0.4730 0.6331
vt 0.6848 0.8372
vt 0.7938 0.8372
vt 0.7938 0.8752
vt 0.6848 0.8752
vt 0.5462 0.7958
vt 0.5462 0.6868
vt 0.5667 0.6869
vt 0.5667 0.7959
vt 0.4205 0.9991
vt 0.3686 0.9991
vt 0.3686 0.9712
vt 0.4205 0.9712
vt 0.4730 0.7439
vt 0.5009 0.7439
vt 0.5009 0.7957
vt 0.4730 0.7957
vt 0.0167 0.7191
vt 0.1658 0.7191
vt 0.1658 0.7709
vt 0.0167 0.7709
vt 0.0167 0.8860
vt 0.1658 0.8860
vt 0.1658 0.9139
vt 0.0167 0.9139
vt 0.0167 0.7728
vt 0.1658 0.7728
vt 0.1658 0.8246
vt 0.0167 0.8246
vt 0.1658 0.8841
vt 0.0167 0.8841
vt 0.0167 0.8562
vt 0.1658 0.8562
vt 0.2288 0.9970
vt 0.1770 0.9970
vt 0.1770 0.9691
vt 0.2288 0.9691
vt 0.4730 0.7976
vt 0.5009 0.7976
vt 0.5009 0.8494
vt 0.4730 0.8494
vt 0.7201 0.2562
vt 0.5710 0.2562
vt 0.5710 0.2043
vt 0.7201 0.2043
vt 0.5762 0.8966
vt 0.4271 0.8966
vt 0.4271 0.8687
vt 0.5762 0.8687
vt 0.1658 0.7173
vt 0.0167 0.7173
vt 0.0167 0.6654
vt 0.1658 0.6654
vt 0.0167 0.8264
vt 0.1658 0.8264
vt 0.1658 0.8544
vt 0.0167 0.8544
vn 0.2597 -0.9657 0.0000
vn -0.2597 0.9657 0.0000
vn 0.9662 0.2579 0.0000
vn -0.0000 -0.0000 1.0000
vn -0.9662 -0.2579 -0.0000
vn 0.0000 0.0000 -1.0000
vn 0.0000 -1.0000 0.0000
vn 0.0000 1.0000 0.0000
vn 1.0000 -0.0000 0.0000
vn -1.0000 -0.0000 -0.0000
vn -0.2597 -0.9657 0.0000
vn 0.2597 0.9657 -0.0000
vn 0.9662 -0.2579 0.0000
vn -0.9662 0.2579 -0.0000
vn -0.5014 -0.8652 0.0000
vn 0.5014 0.8652 0.0000
vn 0.8788 -0.4772 0.0000
vn -0.8788 0.4772 0.0000
vn -0.3432 -0.9393 0.0000
vn 0.3432 0.9393 0.0000
vn 0.9401 -0.3409 0.0000
vn -0.9401 0.3409 -0.0000
vn 0.5014 -0.8652 0.0000
vn -0.5014 0.8652 0.0000
vn -0.8668 -0.4986 -0.0000
vn 0.8668 0.4986 0.0000
vn 0.3432 -0.9393 0.0000
vn -0.3432 0.9393 0.0000
vn -0.9401 -0.3409 0.0000
vn 0.9401 0.3409 0.0000
vn 0.0875 -0.9962 0.0000
vn -0.0875 0.9962 0.0000
vn 0.9962 0.0868 0.0000
vn -0.9962 -0.0868 -0.0000
vn -0.1837 -0.9657 0.1837
vn 0.1837 0.9657 -0.1837
vn -0.6832 0.2579 0.6832
vn -0.7071 -0.0000 -0.7071
vn 0.6832 -0.2579 -0.6832
vn 0.7071 0.0000 0.7071
vn 0.1837 -0.9657 0.1837
vn -0.1837 0.9657 -0.1837
vn 0.6832 0.2579 0.6832
vn -0.7071 -0.0000 0.7071
vn -0.6832 -0.2579 -0.6832
vn 0.7071 0.0000 -0.7071
vn 0.0000 -0.8157 0.5785
vn 0.0000 0.8157 -0.5785
vn 0.0000 0.5770 0.8167
vn 0.0000 -0.5770 -0.8167
vn -0.0455 -0.3865 0.9211
vn 0.0455 0.3865 -0.9211
vn -0.0192 0.9215 0.3878
vn -0.9988 -0.0000 -0.0494
vn 0.0192 -0.9215 -0.3878
vn 0.9988 -0.0000 0.0494
vn 0.9211 -0.3865 0.0455
vn -0.9211 0.3865 -0.0455
vn 0.3878 0.9215 0.0192
vn -0.0494 -0.0000 0.9988
vn -0.3878 -0.9215 -0.0192
vn 0.0494 -0.0000 -0.9988
usemtl None
s off
f 1/1/1 2/2/1 3/3/1 4/4/1
f 5/5/2 8/6/2 7/7/2 6/8/2
f 1/9/3 5/10/3 6/11/3 2/12/3
f 2/13/4 6/14/4 7/15/4 3/16/4
f 3/17/5 7/18/5 8/19/5 4/20/5
f 5/21/6 1/22/6 4/23/6 8/24/6
f 9/25/7 10/26/7 11/27/7 12/28/7
f 13/29/8 16/30/8 15/31/8 14/32/8
f 9/33/9 13/34/9 14/35/9 10/36/9
f 10/37/4 14/38/4 15/39/4 11/40/4
f 11/41/10 15/42/10 16/43/10 12/44/10
f 13/45/6 9/46/6 12/47/6 16/48/6
f 17/49/11 18/50/11 19/51/11 20/52/11
f 21/53/12 24/54/12 23/55/12 22/56/12
f 17/57/13 21/58/13 22/59/13 18/60/13
f 18/61/4 22/62/4 23/63/4 19/64/4
f 19/65/14 23/66/14 24/67/14 20/68/14
f 21/69/6 17/70/6 20/71/6 24/72/6
f 25/73/15 26/74/15 27/75/15 28/76/15
f 29/77/16 32/78/16 31/79/16 30/80/16
f 25/81/17 29/82/17 30/83/17 26/84/17
f 26/85/4 30/86/4 31/87/4 27/88/4
f 27/89/18 31/90/18 32/91/18 28/92/18
f 29/93/6 25/94/6 28/95/6 32/96/6
f 33/97/19 34/98/19 35/99/19 36/100/19
f 37/101/20 40/102/20 39/103/20 38/104/20
f 33/105/21 37/106/21 38/107/21 34/108/21
f 34/109/4 38/110/4 39/111/4 35/112/4
f 35/113/22 39/114/22 40/115/22 36/116/22
f 37/117/6 33/118/6 36/119/6 40/120/6
f 41/121/7 42/122/7 43/123/7 44/124/7
f 45/125/8 48/126/8 47/127/8 46/128/8
f 41/129/9 45/130/9 46/131/9 42/132/9
f 42/133/4 46/134/4 47/135/4 43/136/4
f 43/137/10 47/138/10 48/139/10 44/140/10
f 45/141/6 41/142/6 44/143/6 48/144/6
f 49/145/11 50/146/11 51/147/11 52/148/11
f 53/149/12 56/150/12 55/151/12 54/152/12
f 49/153/14 53/154/14 54/155/14 50/156/14
f 50/157/6 54/158/6 55/159/6 51/160/6
f 51/161/13 55/162/13 56/163/13 52/164/13
f 53/165/4 49/166/4 52/167/4 56/168/4
f 57/169/7 58/170/7 59/171/7 60/172/7
f 61/173/8 64/174/8 63/175/8 62/176/8
f 57/177/10 61/178/10 62/179/10 58/180/10
f 58/181/6 62/182/6 63/183/6 59/184/6
f 59/185/9 63/186/9 64/187/9 60/188/9
f 61/189/4 57/190/4 60/191/4 64/192/4
f 65/193/1 66/194/1 67/195/1 68/196/1
f 69/197/2 72/198/2 71/199/2 70/200/2
f 65/201/5 69/202/5 70/203/5 66/204/5
f 66/205/6 70/206/6 71/207/6 67/208/6
f 67/209/3 71/210/3 72/211/3 68/212/3
f 69/213/4 65/214/4 68/215/4 72/216/4
f 73/217/23 74/218/23 75/219/23 76/220/23
f 77/221/24 80/222/24 79/223/24 78/224/24
f 73/225/25 77/226/25 78/227/25 74/228/25
f 74/229/6 78/230/6 79/231/6 75/232/6
f 75/233/26 79/234/26 80/235/26 76/236/26
f 77/237/4 73/238/4 76/239/4 80/240/4
f 81/241/27 82/242/27 83/243/27 84/244/27
f 85/245/28 88/246/28 87/247/28 86/248/28
f 81/249/29 85/250/29 86/251/29 82/252/29
f 82/253/6 86/254/6 87/255/6 83/256/6
f 83/257/30 87/258/30 88/259/30 84/260/30
f 85/261/4 81/262/4 84/263/4 88/264/4
f 89/265/7 90/266/7 91/267/7 92/268/7
f 93/269/8 96/270/8 95/271/8 94/272/8
f 89/273/10 93/274/10 94/275/10 90/276/10
f 90/277/6 94/278/6 95/279/6 91/280/6
f 91/281/9 95/282/9 96/283/9 92/284/9
f 93/285/4 89/286/4 92/287/4 96/288/4
f 97/289/31 98/290/31 99/291/31 100/292/31
f 101/293/32 104/294/32 103/295/32 102/296/32
f 97/297/33 101/298/33 102/299/33 98/300/33
f 98/301/4 102/302/4 103/303/4 99/304/4
f 99/305/34 103/306/34 104/307/34 100/308/34
f 101/309/6 97/310/6 100/311/6 104/312/6
f 105/313/31 106/314/31 107/315/31 108/316/31
f 109/317/32 112/318/32 111/319/32 110/320/32
f 105/321/33 109/322/33 110/323/33 106/324/33
f 106/325/4 110/326/4 111/327/4 107/328/4
f 107/329/34 111/330/34 112/331/34 108/332/34
f 109/333/6 105/334/6 108/335/6 112/336/6
f 113/337/35 114/338/35 115/339/35 116/340/35
f 117/341/36 120/342/36 119/343/36 118/344/36
f 113/345/37 117/346/37 118/347/37 114/348/37
f 114/349/38 118/350/38 119/351/38 115/352/38
f 115/353/39 119/354/39 120/355/39 116/356/39
f 117/357/40 113/358/40 116/359/40 120/360/40
f 121/361/41 122/362/41 123/363/41 124/364/41
f 125/365/42 128/366/42 127/367/42 126/368/42
f 121/369/43 125/370/43 126/371/43 122/372/43
f 122/373/44 126/374/44 127/375/44 123/376/44
f 123/377/45 127/378/45 128/379/45 124/380/45
f 125/381/46 121/382/46 124/383/46 128/384/46
f 129/385/47 130/386/47 131/387/47 132/388/47
f 133/389/48 136/390/48 135/391/48 134/392/48
f 129/393/49 133/394/49 134/395/49 130/396/49
f 130/397/10 134/398/10 135/399/10 131/400/10
f 131/401/50 135/402/50 136/403/50 132/404/50
f 133/405/9 129/406/9 132/407/9 136/408/9
f 137/409/51 138/410/51 139/411/51 140/412/51
f 141/413/52 144/414/52 143/415/52 142/416/52
f 137/417/53 141/418/53 142/419/53 138/420/53
f 138/421/54 142/422/54 143/423/54 139/424/54
f 139/425/55 143/426/55 144/427/55 140/428/55
f 141/429/56 137/430/56 140/431/56 144/432/56
f 145/433/57 146/434/57 147/435/57 148/436/57
f 149/437/58 152/438/58 151/439/58 150/440/58
f 145/441/59 149/442/59 150/443/59 146/444/59
f 146/445/60 150/446/60 151/447/60 147/448/60
f 147/449/61 151/450/61 152/451/61 148/452/61
f 149/453/62 145/454/62 148/455/62 152/456/62
