# Blender v2.78 (sub 0) OBJ File: 'R2_Corner.blend'
# www.blender.org
mtllib R2_Corner.mtl
o Cube.001_Cube.002
v -1.000000 0.000000 1.000000
v -1.169744 1.419691 0.794795
v -1.000000 0.000000 -1.000000
v -0.794795 1.419691 -1.169744
v 1.000000 0.000000 1.000000
v 0.794795 1.419691 1.169744
v 1.000000 0.000000 -1.000000
v 1.169744 1.419691 -0.794795
v -1.411390 3.554787 -0.089316
v 0.089316 3.554787 -1.411390
v -0.089316 3.554787 1.411390
v 1.411390 3.554787 0.089316
v -1.186683 6.147414 -1.495484
v 1.495484 6.147414 -1.186683
v -1.495484 6.147414 1.186683
v 1.186683 6.147414 1.495484
v -0.668527 -0.045499 1.642706
v -0.698890 1.180937 1.054729
v 0.458700 1.419206 1.389578
v 0.533767 -0.045499 1.792514
v 1.216628 0.864783 -0.403803
v 1.605512 0.108879 -0.602057
v 1.664610 0.021772 0.601951
v 1.087176 0.652010 0.778858
vt 0.7822 0.7119
vt 0.9320 0.7334
vt 0.9320 0.9429
vt 0.7822 0.9214
vt 0.1969 0.3896
vt 0.3467 0.4111
vt 0.3467 0.6206
vt 0.1969 0.5991
vt 0.7686 0.1501
vt 0.7901 0.0003
vt 0.7901 0.0003
vt 0.7686 0.1501
vt 0.7686 0.1501
vt 0.7901 0.0003
vt 0.7816 0.9214
vt 0.5720 0.9214
vt 0.5720 0.7119
vt 0.7816 0.7119
vt 0.5720 0.0746
vt 0.7680 0.0003
vt 0.7680 0.2438
vt 0.5720 0.3180
vt 0.3774 0.0796
vt 0.5714 0.0003
vt 0.5714 0.2975
vt 0.3774 0.3767
vt 0.6462 0.5146
vt 0.5720 0.3187
vt 0.8155 0.3187
vt 0.8897 0.5146
vt 0.0003 0.4638
vt 0.1963 0.3896
vt 0.1963 0.6330
vt 0.0003 0.7073
vt 0.6462 0.7112
vt 0.5720 0.5153
vt 0.8155 0.5153
vt 0.8897 0.7112
vt 0.2099 0.7079
vt 0.2099 0.9175
vt 0.0003 0.9175
vt 0.0003 0.7079
vt 0.0796 0.3889
vt 0.0003 0.1950
vt 0.2975 0.1950
vt 0.3767 0.3889
vt 0.0796 0.1943
vt 0.0003 0.0003
vt 0.2975 0.0003
vt 0.3767 0.1943
vt 0.3774 0.4566
vt 0.5714 0.3774
vt 0.5714 0.6745
vt 0.3774 0.7538
vt 0.5714 0.7544
vt 0.5499 0.9042
vt 0.3403 0.9042
vt 0.3618 0.7544
vt 0.7822 0.7119
vt 0.9320 0.7334
vt 0.5720 0.7119
vt 0.7816 0.7119
vt 0.0003 0.4638
vt 0.1963 0.3896
vt 0.9997 0.0003
vt 0.9782 0.1501
vt 0.5720 0.9214
vt 0.5720 0.7119
vt 0.5720 0.0746
vt 0.7680 0.0003
vt 0.3467 0.6206
vt 0.1969 0.5991
vn -0.9956 0.0000 -0.0942
vn 0.0942 -0.0000 -0.9956
vn 0.6946 0.1461 0.7044
vn 0.7747 0.1254 0.6197
vn 0.0000 -1.0000 0.0000
vn 0.8685 0.0000 0.4957
vn 0.2329 -0.1458 0.9615
vn -0.8685 0.0000 -0.4957
vn -0.4957 0.0000 0.8685
vn 0.4957 0.0000 -0.8685
vn 0.0000 1.0000 0.0000
vn -0.2329 -0.1458 -0.9615
vn -0.9615 -0.1458 0.2329
vn 0.9615 -0.1458 -0.2329
vn -0.2217 0.3293 0.9178
vn -0.7149 0.1506 0.6829
vn 0.0029 -0.9980 -0.0630
vn -0.1744 0.8608 0.4782
vn 0.8285 0.5522 0.0938
vn 0.1023 -0.9943 -0.0289
vn 0.9546 0.2449 0.1696
vn 0.8062 0.1854 -0.5619
usemtl None
s off
f 1/1/1 2/2/1 4/3/1 3/4/1
f 3/5/2 4/6/2 8/7/2 7/8/2
f 6/9/3 5/10/3 23/11/3 24/12/3
f 5/10/4 6/9/4 19/13/4 20/14/4
f 3/15/5 7/16/5 5/17/5 1/18/5
f 6/19/6 8/20/6 12/21/6 11/22/6
f 11/23/7 12/24/7 16/25/7 15/26/7
f 4/27/8 2/28/8 9/29/8 10/30/8
f 2/31/9 6/32/9 11/33/9 9/34/9
f 8/35/10 4/36/10 10/37/10 12/38/10
f 16/39/11 14/40/11 13/41/11 15/42/11
f 10/43/12 9/44/12 13/45/12 14/46/12
f 9/47/13 11/48/13 15/49/13 13/50/13
f 12/51/14 10/52/14 14/53/14 16/54/14
f 20/55/15 19/56/15 18/57/15 17/58/15
f 2/2/16 1/1/16 17/59/16 18/60/16
f 1/18/17 5/17/17 20/61/17 17/62/17
f 6/32/18 2/31/18 18/63/18 19/64/18
f 22/65/19 21/66/19 24/12/19 23/11/19
f 5/17/20 7/16/20 22/67/20 23/68/20
f 8/20/21 6/19/21 24/69/21 21/70/21
f 7/8/22 8/7/22 21/71/22 22/72/22
