# Blender v2.78 (sub 0) OBJ File: 'HealthPentagon.blend'
# www.blender.org
mtllib HealthPentagon.mtl
o Circle
v -0.000000 -0.011843 -1.461674
v -1.390135 -0.011843 -0.451682
v -0.859150 -0.011843 1.182519
v 0.859151 -0.011843 1.182519
v 1.390135 -0.011843 -0.451682
v -0.000000 -0.011843 -1.102090
v -1.048150 -0.011843 -0.340565
v -0.647792 -0.011843 0.891610
v 0.647792 -0.011843 0.891610
v 1.048150 -0.011843 -0.340565
v -0.000000 0.049718 -1.461674
v -1.390135 0.049718 -0.451682
v -0.859150 0.049718 1.182519
v 0.859151 0.049718 1.182519
v 1.390135 0.049718 -0.451682
v -0.000000 0.049718 -1.102090
v -1.048150 0.049718 -0.340565
v -0.647792 0.049718 0.891610
v 0.647792 0.049718 0.891610
v 1.048150 0.049718 -0.340565
v -0.000000 0.126438 -1.461674
v -1.390135 0.126438 -0.451682
v -0.859150 0.126438 1.182519
v 0.859151 0.126438 1.182519
v 1.390135 0.126438 -0.451682
v -0.000000 0.126438 -1.102090
v -1.048150 0.126438 -0.340565
v -0.647792 0.126438 0.891610
v 0.647792 0.126438 0.891610
v 1.048150 0.126438 -0.340565
vt 0.9856 0.1838
vt 0.9259 0.2059
vt 0.7426 0.0783
vt 0.7401 0.0149
vt 0.4956 0.1790
vt 0.5565 0.1972
vt 0.6251 0.4052
vt 0.5903 0.4584
vt 0.8875 0.4597
vt 0.8491 0.4094
vt 0.4804 0.2646
vt 0.3005 0.5288
vt 0.2930 0.5109
vt 0.4617 0.2659
vt 0.0809 0.1609
vt 0.0805 0.3675
vt 0.0684 0.3782
vt 0.0665 0.1533
vt 0.3821 0.2644
vt 0.2698 0.0947
vt 0.2731 0.0786
vt 0.3981 0.2625
vt 0.0001 0.4244
vt 0.0147 0.4123
vt 0.7392 0.0001
vt 0.9999 0.1779
vt 0.8970 0.4713
vt 0.5825 0.4713
vt 0.7437 0.0912
vt 0.5694 0.2002
vt 0.4806 0.1752
vt 0.9136 0.2114
vt 0.6316 0.3938
vt 0.8407 0.3994
vt 0.2754 0.4495
vt 0.0163 0.1140
vt 0.2959 0.0189
vt 0.0001 0.1042
vt 0.3006 0.0001
vt 0.2682 0.4346
vn 0.0000 1.0000 -0.0000
vn -0.9511 0.0000 -0.3090
vn -0.9511 0.0000 0.3090
vn 0.5878 0.0000 -0.8090
vn -0.0000 0.0000 -1.0000
vn -0.5878 0.0000 -0.8090
vn 0.5878 0.0000 0.8090
vn 0.0000 0.0000 1.0000
vn -0.5878 0.0000 0.8090
vn 0.9511 0.0000 -0.3090
vn 0.9511 0.0000 0.3090
vn 0.0000 -1.0000 0.0000
usemtl None
s off
f 5/1/1 10/2/1 9/3/1 4/4/1
f 3/5/1 8/6/1 7/7/1 2/8/1
f 1/9/1 6/10/1 10/2/1 5/1/1
f 4/4/1 9/3/1 8/6/1 3/5/1
f 2/8/1 7/7/1 6/10/1 1/9/1
f 15/11/2 14/12/2 24/13/2 25/14/2
f 17/15/3 18/16/3 28/17/3 27/18/3
f 20/19/4 16/20/4 26/21/4 30/22/4
f 14/12/5 13/23/5 23/24/5 24/13/5
f 16/20/6 17/15/6 27/18/6 26/21/6
f 5/1/2 4/4/2 14/25/2 15/26/2
f 2/8/7 1/9/7 11/27/7 12/28/7
f 8/6/8 9/3/8 19/29/8 18/30/8
f 1/9/9 5/1/9 15/26/9 11/27/9
f 3/5/10 2/8/10 12/28/10 13/31/10
f 9/3/11 10/2/11 20/32/11 19/29/11
f 6/10/6 7/7/6 17/33/6 16/34/6
f 4/4/5 3/5/5 13/31/5 14/25/5
f 10/2/4 6/10/4 16/34/4 20/32/4
f 7/7/3 8/6/3 18/30/3 17/33/3
f 25/14/12 24/13/12 29/35/12 30/22/12
f 23/24/12 22/36/12 27/18/12 28/17/12
f 21/37/12 25/14/12 30/22/12 26/21/12
f 24/13/12 23/24/12 28/17/12 29/35/12
f 22/36/12 21/37/12 26/21/12 27/18/12
f 12/38/7 11/39/7 21/37/7 22/36/7
f 18/16/8 19/40/8 29/35/8 28/17/8
f 11/39/9 15/11/9 25/14/9 21/37/9
f 13/23/10 12/38/10 22/36/10 23/24/10
f 19/40/11 20/19/11 30/22/11 29/35/11
