# Blender v2.78 (sub 0) OBJ File: 'Pillar_Template_1.blend'
# www.blender.org
mtllib metal_spike.mtl
o Cube_Cube.001
v -1.000000 -1.000000 1.000000
v -1.000000 1.000000 1.000000
v -1.000000 -1.000000 -1.000000
v -1.000000 1.000000 -1.000000
v 1.000000 -1.000000 1.000000
v 1.000000 1.000000 1.000000
v 1.000000 -1.000000 -1.000000
v 1.000000 1.000000 -1.000000
v -0.500000 -1.000000 1.500000
v -0.500000 0.000000 1.500000
v 0.500000 0.000000 1.500000
v 0.500000 -1.000000 1.500000
v 1.500000 0.000000 -0.500000
v 1.500000 -1.000000 -0.500000
v 1.500000 -1.000000 0.500000
v 1.500000 0.000000 0.500000
v -0.500000 0.000000 -1.500000
v -0.500000 -1.000000 -1.500000
v 0.500000 -1.000000 -1.500000
v 0.500000 0.000000 -1.500000
v -1.500000 -1.000000 -0.500000
v -1.500000 -1.000000 0.500000
v -1.500000 0.000000 0.500000
v -1.500000 0.000000 -0.500000
v 2.250000 -1.000000 -0.500000
v 2.250000 -1.000000 0.500000
v -2.250000 -1.000000 -0.500000
v -2.250000 -1.000000 0.500000
v -0.500000 -1.000000 2.250000
v 0.500000 -1.000000 2.250000
v -0.500000 -1.000000 -2.250000
v 0.500000 -1.000000 -2.250000
v -0.392703 15.846539 0.392703
v -0.392703 15.846539 -0.392703
v 0.392703 15.846539 -0.392703
v 0.392703 15.846539 0.392703
vt 0.2465 0.2263
vt 0.2135 0.1211
vt 0.2418 0.1022
vt 0.2708 0.1544
vt 0.1990 0.1733
vt 0.1922 0.1371
vt 0.0001 0.1648
vt 0.0882 0.0490
vt 0.1035 0.0985
vt 0.0684 0.1305
vt 0.6409 0.1492
vt 0.4878 0.1492
vt 0.5339 0.0800
vt 0.5920 0.0814
vt 0.1466 0.1265
vt 0.2218 0.0001
vt 0.5604 0.0421
vt 0.5682 0.0453
vt 0.6251 0.0047
vt 0.5865 0.0275
vt 0.5007 0.0001
vt 0.5443 0.0251
vt 0.1676 0.1380
vt 0.1766 0.1471
vt 0.1599 0.1706
vt 0.1243 0.1220
vt 0.1190 0.2171
vt 0.1071 0.1550
vt 0.3346 0.1431
vt 0.2694 0.0978
vt 0.3098 0.0627
vt 0.1051 0.1182
vt 0.1081 0.1237
vt 0.5251 0.1495
vt 0.5251 0.2551
vt 0.4878 0.2023
vt 0.4878 0.1495
vt 0.3817 0.2219
vt 0.2506 0.0363
vt 0.1812 0.1488
vt 0.5274 0.2553
vt 0.5274 0.3081
vt 0.4878 0.2553
vt 0.1240 0.9396
vt 0.0903 0.9309
vt 0.1479 0.9999
vt 0.0482 0.9999
vt 0.3819 0.0001
vt 0.4876 0.0001
vt 0.4555 0.7850
vt 0.4140 0.7850
vn -0.7071 0.0000 -0.7071
vn 0.7071 0.0000 0.7071
vn 0.0000 0.4472 0.8944
vn 0.0000 -1.0000 0.0000
vn 0.0000 0.6000 0.8000
vn -0.7071 0.0000 0.7071
vn 1.0000 0.0000 0.0000
vn 0.8944 0.4472 0.0000
vn 0.7071 0.0000 -0.7071
vn -0.8000 0.6000 0.0000
vn 0.0000 0.4472 -0.8944
vn 0.8000 0.6000 0.0000
vn -0.8944 0.4472 0.0000
vn 0.0000 0.6000 -0.8000
vn -1.0000 0.0000 0.0000
vn 0.0000 0.0000 1.0000
vn 0.0000 0.0000 -1.0000
vn 0.0000 0.0409 -0.9992
vn 0.0000 1.0000 0.0000
vn 0.9992 0.0409 0.0000
vn -0.9992 0.0409 0.0000
vn 0.0000 0.0409 0.9992
usemtl Material.001
s off
f 4/1/1 3/2/1 21/3/1 24/4/1
f 3/2/1 4/1/1 17/5/1 18/6/1
f 6/7/2 5/8/2 15/9/2 16/10/2
f 6/11/3 2/12/3 10/13/3 11/14/3
f 3/2/4 7/15/4 5/8/4 1/16/4
f 11/14/5 10/13/5 29/17/5 30/18/5
f 5/19/2 6/11/2 11/14/2 12/20/2
f 2/12/6 1/21/6 9/22/6 10/13/6
f 1/21/4 5/19/4 12/20/4 9/22/4
f 19/23/7 32/24/7 20/25/7
f 5/8/4 7/15/4 14/26/4 15/9/4
f 8/27/8 6/7/8 16/10/8 13/28/8
f 7/15/9 8/27/9 13/28/9 14/26/9
f 23/29/10 24/4/10 27/30/10 28/31/10
f 8/27/9 7/15/9 19/23/9 20/25/9
f 7/15/4 3/2/4 18/6/4 19/23/4
f 4/1/11 8/27/11 20/25/11 17/5/11
f 13/28/12 16/10/12 26/32/12 25/33/12
f 1/34/6 2/35/6 23/36/6 22/37/6
f 2/38/13 4/1/13 24/4/13 23/29/13
f 3/2/4 1/16/4 22/39/4 21/3/4
f 17/5/14 20/25/14 32/24/14 31/40/14
f 18/6/15 17/5/15 31/40/15
f 21/3/4 22/39/4 28/31/4 27/30/4
f 15/9/4 14/26/4 25/33/4 26/32/4
f 15/9/16 26/32/16 16/10/16
f 9/22/15 29/17/15 10/13/15
f 12/20/7 11/14/7 30/18/7
f 22/41/16 23/42/16 28/43/16
f 19/23/4 18/6/4 31/40/4 32/24/4
f 9/22/4 12/20/4 30/18/4 29/17/4
f 14/26/17 13/28/17 25/33/17
f 21/3/17 27/30/17 24/4/17
f 8/27/18 4/1/18 34/44/18 35/45/18
f 33/46/19 36/47/19 35/45/19 34/44/19
f 6/7/20 8/27/20 35/45/20 36/47/20
f 4/1/21 2/38/21 33/46/21 34/44/21
f 2/48/22 6/49/22 36/50/22 33/51/22
