# Blender v2.78 (sub 0) OBJ File: 'Pillar_Template_1.blend'
# www.blender.org
mtllib tall_spike.mtl
o Cube_Cube.001
v -1.000000 -1.000000 1.000000
v -1.000000 1.000000 1.000000
v -1.000000 -1.000000 -1.000000
v -1.000000 1.000000 -1.000000
v 1.000000 -1.000000 1.000000
v 1.000000 1.000000 1.000000
v 1.000000 -1.000000 -1.000000
v 1.000000 1.000000 -1.000000
v -0.500000 -1.000000 1.500000
v -0.500000 0.000000 1.500000
v 0.500000 0.000000 1.500000
v 0.500000 -1.000000 1.500000
v 1.500000 0.000000 -0.500000
v 1.500000 -1.000000 -0.500000
v 1.500000 -1.000000 0.500000
v 1.500000 0.000000 0.500000
v -0.500000 0.000000 -1.500000
v -0.500000 -1.000000 -1.500000
v 0.500000 -1.000000 -1.500000
v 0.500000 0.000000 -1.500000
v -1.500000 -1.000000 -0.500000
v -1.500000 -1.000000 0.500000
v -1.500000 0.000000 0.500000
v -1.500000 0.000000 -0.500000
v 2.250000 -1.000000 -0.500000
v 2.250000 -1.000000 0.500000
v -2.250000 -1.000000 -0.500000
v -2.250000 -1.000000 0.500000
v -0.500000 -1.000000 2.250000
v 0.500000 -1.000000 2.250000
v -0.500000 -1.000000 -2.250000
v 0.500000 -1.000000 -2.250000
v -0.392703 15.846539 0.392703
v -0.392703 15.846539 -0.392703
v 0.392703 15.846539 -0.392703
v 0.392703 15.846539 0.392703
vn -0.7071 0.0000 -0.7071
vn 0.7071 0.0000 0.7071
vn 0.0000 0.4472 0.8944
vn 0.0000 -1.0000 0.0000
vn 0.0000 0.6000 0.8000
vn -0.7071 0.0000 0.7071
vn 1.0000 0.0000 0.0000
vn 0.8944 0.4472 0.0000
vn 0.7071 0.0000 -0.7071
vn -0.8000 0.6000 0.0000
vn 0.0000 0.4472 -0.8944
vn 0.8000 0.6000 0.0000
vn -0.8944 0.4472 0.0000
vn 0.0000 0.6000 -0.8000
vn -1.0000 0.0000 0.0000
vn 0.0000 0.0000 1.0000
vn 0.0000 0.0000 -1.0000
vn 0.0000 0.0409 -0.9992
vn 0.0000 1.0000 0.0000
vn 0.9992 0.0409 0.0000
vn -0.9992 0.0409 0.0000
vn 0.0000 0.0409 0.9992
usemtl None
s off
f 4//1 3//1 21//1 24//1
f 3//1 4//1 17//1 18//1
f 6//2 5//2 15//2 16//2
f 6//3 2//3 10//3 11//3
f 3//4 7//4 5//4 1//4
f 11//5 10//5 29//5 30//5
f 5//2 6//2 11//2 12//2
f 2//6 1//6 9//6 10//6
f 1//4 5//4 12//4 9//4
f 19//7 32//7 20//7
f 5//4 7//4 14//4 15//4
f 8//8 6//8 16//8 13//8
f 7//9 8//9 13//9 14//9
f 23//10 24//10 27//10 28//10
f 8//9 7//9 19//9 20//9
f 7//4 3//4 18//4 19//4
f 4//11 8//11 20//11 17//11
f 13//12 16//12 26//12 25//12
f 1//6 2//6 23//6 22//6
f 2//13 4//13 24//13 23//13
f 3//4 1//4 22//4 21//4
f 17//14 20//14 32//14 31//14
f 18//15 17//15 31//15
f 21//4 22//4 28//4 27//4
f 15//4 14//4 25//4 26//4
f 15//16 26//16 16//16
f 9//15 29//15 10//15
f 12//7 11//7 30//7
f 22//16 23//16 28//16
f 19//4 18//4 31//4 32//4
f 9//4 12//4 30//4 29//4
f 14//17 13//17 25//17
f 21//17 27//17 24//17
f 8//18 4//18 34//18 35//18
f 33//19 36//19 35//19 34//19
f 6//20 8//20 35//20 36//20
f 4//21 2//21 33//21 34//21
f 2//22 6//22 36//22 33//22
