# Blender v2.78 (sub 0) OBJ File: 'Twist_Pillar_0.blend'
# www.blender.org
mtllib Twist_Pillar_0.mtl
o Cube_Cube.001
v -1.000000 -1.000000 1.000000
v -1.000000 1.000000 1.000000
v -1.000000 -1.000000 -1.000000
v -1.000000 1.000000 -1.000000
v 1.000000 -1.000000 1.000000
v 1.000000 1.000000 1.000000
v 1.000000 -1.000000 -1.000000
v 1.000000 1.000000 -1.000000
v -0.500000 -1.000000 1.500000
v -0.500000 0.000000 1.500000
v 0.500000 0.000000 1.500000
v 0.500000 -1.000000 1.500000
v 1.500000 0.000000 -0.500000
v 1.500000 -1.000000 -0.500000
v 1.500000 -1.000000 0.500000
v 1.500000 0.000000 0.500000
v -0.500000 0.000000 -1.500000
v -0.500000 -1.000000 -1.500000
v 0.500000 -1.000000 -1.500000
v 0.500000 0.000000 -1.500000
v -1.500000 -1.000000 -0.500000
v -1.500000 -1.000000 0.500000
v -1.500000 0.000000 0.500000
v -1.500000 0.000000 -0.500000
v 2.250000 -1.000000 -0.500000
v 2.250000 -1.000000 0.500000
v -2.250000 -1.000000 -0.500000
v -2.250000 -1.000000 0.500000
v -0.500000 -1.000000 2.250000
v 0.500000 -1.000000 2.250000
v -0.500000 -1.000000 -2.250000
v 0.500000 -1.000000 -2.250000
v 0.000000 5.999909 1.414214
v 0.000000 3.999909 1.414214
v -1.414214 5.999909 0.000000
v -1.414214 3.999909 0.000000
v 1.414214 5.999909 0.000000
v 1.414214 3.999909 0.000000
v 0.000000 5.999909 -1.414214
v 0.000000 3.999909 -1.414214
v 0.707107 5.999909 1.414214
v 0.707107 4.999909 1.414214
v 1.414214 4.999909 0.707107
v 1.414214 5.999909 0.707107
v 0.707107 4.999909 -1.414214
v 0.707107 5.999909 -1.414214
v 1.414214 5.999909 -0.707107
v 1.414214 4.999909 -0.707107
v -1.414214 4.999909 -0.707107
v -1.414214 5.999909 -0.707107
v -0.707107 5.999909 -1.414214
v -0.707107 4.999909 -1.414214
v -1.414214 5.999909 0.707107
v -0.707107 5.999909 1.414214
v -0.707107 4.999909 1.414214
v -1.414214 4.999909 0.707107
v 1.237437 5.999909 -1.944544
v 1.944544 5.999909 -1.237437
v -1.944544 5.999909 1.237437
v -1.237437 5.999909 1.944544
v 1.237437 5.999909 1.944544
v 1.944544 5.999909 1.237437
v -1.944544 5.999909 -1.237437
v -1.237437 5.999909 -1.944544
vt 0.0000 0.0000
vt 0.0000 0.0000
vt 0.0000 0.0000
vt 0.0000 0.0000
vt 0.0000 0.0000
vt 0.0000 0.0000
vt 0.0000 0.0000
vt 0.0000 0.0000
vt 0.0000 0.0000
vt 0.0000 0.0000
vt 0.0000 0.0000
vt 0.0000 0.0000
vt 0.0000 0.0000
vt 0.0000 0.0000
vt 0.0000 0.0000
vt 0.0000 0.0000
vt 0.0000 0.0000
vt 0.0000 0.0000
vt 0.0000 0.0000
vt 0.0000 0.0000
vt 0.0000 0.0000
vt 0.0000 0.0000
vt 0.0000 0.0000
vt 0.0000 0.0000
vt 0.0000 0.0000
vt 0.0000 0.0000
vt 0.0000 0.0000
vt 0.0000 0.0000
vt 0.0000 0.0000
vt 0.0000 0.0000
vt 0.0000 0.0000
vt 0.0000 0.0000
vt 0.0000 0.0000
vt 0.0000 0.0000
vt 0.0000 0.0000
vt 0.0000 0.0000
vt 0.0000 0.0000
vt 0.0000 0.0000
vt 0.0000 0.0000
vt 0.0000 0.0000
vt 0.0000 0.0000
vt 0.0000 0.0000
vt 0.0000 0.0000
vt 0.0000 0.0000
vt 0.0000 0.0000
vt 0.0000 0.0000
vt 0.0000 0.0000
vt 0.0000 0.0000
vt 0.0000 0.0000
vt 0.0000 0.0000
vt 0.0000 0.0000
vt 0.0000 0.0000
vt 0.0000 0.0000
vt 0.0000 0.0000
vt 0.0000 0.0000
vt 0.0000 0.0000
vt 0.0000 0.0000
vt 0.0000 0.0000
vt 0.0000 0.0000
vt 0.0000 0.0000
vt 0.0000 0.0000
vt 0.0000 0.0000
vt 0.0000 0.0000
vt 0.0000 0.0000
vn -0.7071 0.0000 -0.7071
vn 0.7071 0.0000 0.7071
vn 0.0000 0.4472 0.8944
vn 0.0000 -1.0000 0.0000
vn 0.0000 0.6000 0.8000
vn -0.7071 0.0000 0.7071
vn 1.0000 0.0000 0.0000
vn 0.8944 0.4472 0.0000
vn 0.7071 0.0000 -0.7071
vn -0.8000 0.6000 0.0000
vn 0.0000 0.4472 -0.8944
vn 0.8000 0.6000 0.0000
vn -0.8944 0.4472 0.0000
vn 0.0000 0.6000 -0.8000
vn -1.0000 0.0000 0.0000
vn 0.0000 0.0000 1.0000
vn 0.0000 0.0000 -1.0000
vn -0.6325 0.4472 -0.6325
vn -0.5657 0.6000 -0.5657
vn -0.6325 0.4472 0.6325
vn 0.5657 0.6000 -0.5657
vn 0.6325 0.4472 0.6325
vn -0.5657 0.6000 0.5657
vn 0.6325 0.4472 -0.6325
vn 0.5657 0.6000 0.5657
vn -0.9239 0.0000 0.3827
vn -0.3827 0.0000 -0.9239
vn 0.9239 0.0000 -0.3827
vn 0.3827 0.0000 0.9239
usemtl None
s off
f 4/1/1 3/2/1 21/3/1 24/4/1
f 3/2/1 4/1/1 17/5/1 18/6/1
f 6/7/2 5/8/2 15/9/2 16/10/2
f 6/7/3 2/11/3 10/12/3 11/13/3
f 3/2/4 7/14/4 5/8/4 1/15/4
f 11/13/5 10/12/5 29/16/5 30/17/5
f 5/8/2 6/7/2 11/13/2 12/18/2
f 2/11/6 1/15/6 9/19/6 10/12/6
f 1/15/4 5/8/4 12/18/4 9/19/4
f 19/20/7 32/21/7 20/22/7
f 5/8/4 7/14/4 14/23/4 15/9/4
f 8/24/8 6/7/8 16/10/8 13/25/8
f 7/14/9 8/24/9 13/25/9 14/23/9
f 23/26/10 24/4/10 27/27/10 28/28/10
f 8/24/9 7/14/9 19/20/9 20/22/9
f 7/14/4 3/2/4 18/6/4 19/20/4
f 4/1/11 8/24/11 20/22/11 17/5/11
f 13/25/12 16/10/12 26/29/12 25/30/12
f 1/15/6 2/11/6 23/26/6 22/31/6
f 2/11/13 4/1/13 24/4/13 23/26/13
f 3/2/4 1/15/4 22/31/4 21/3/4
f 17/5/14 20/22/14 32/21/14 31/32/14
f 18/6/15 17/5/15 31/32/15
f 21/3/4 22/31/4 28/28/4 27/27/4
f 15/9/4 14/23/4 25/30/4 26/29/4
f 15/9/16 26/29/16 16/10/16
f 9/19/15 29/16/15 10/12/15
f 12/18/7 11/13/7 30/17/7
f 22/31/16 23/26/16 28/28/16
f 19/20/4 18/6/4 31/32/4 32/21/4
f 9/19/4 12/18/4 30/17/4 29/16/4
f 14/23/17 13/25/17 25/30/17
f 21/3/17 27/27/17 24/4/17
f 36/33/7 35/34/7 53/35/7 56/36/7
f 35/34/7 36/33/7 49/37/7 50/38/7
f 38/39/15 37/40/15 47/41/15 48/42/15
f 38/39/18 34/43/18 42/44/18 43/45/18
f 35/34/4 39/46/4 37/40/4 33/47/4
f 43/45/19 42/44/19 61/48/19 62/49/19
f 37/40/15 38/39/15 43/45/15 44/50/15
f 34/43/17 33/47/17 41/51/17 42/44/17
f 33/47/4 37/40/4 44/50/4 41/51/4
f 51/52/6 64/53/6 52/54/6
f 37/40/4 39/46/4 46/55/4 47/41/4
f 40/56/20 38/39/20 48/42/20 45/57/20
f 39/46/16 40/56/16 45/57/16 46/55/16
f 55/58/21 56/36/21 59/59/21 60/60/21
f 40/56/16 39/46/16 51/52/16 52/54/16
f 39/46/4 35/34/4 50/38/4 51/52/4
f 36/33/22 40/56/22 52/54/22 49/37/22
f 45/57/23 48/42/23 58/61/23 57/62/23
f 33/47/17 34/43/17 55/58/17 54/63/17
f 34/43/24 36/33/24 56/36/24 55/58/24
f 35/34/4 33/47/4 54/63/4 53/35/4
f 49/37/25 52/54/25 64/53/25 63/64/25
f 50/38/9 49/37/9 63/64/9
f 53/35/4 54/63/4 60/60/4 59/59/4
f 47/41/4 46/55/4 57/62/4 58/61/4
f 47/41/1 58/61/1 48/42/1
f 41/51/9 61/48/9 42/44/9
f 44/50/6 43/45/6 62/49/6
f 54/63/1 55/58/1 60/60/1
f 51/52/4 50/38/4 63/64/4 64/53/4
f 41/51/4 44/50/4 62/49/4 61/48/4
f 46/55/2 45/57/2 57/62/2
f 53/35/2 59/59/2 56/36/2
f 4/1/26 2/11/26 34/43/26 36/33/26
f 8/24/27 4/1/27 36/33/27 40/56/27
f 6/7/28 8/24/28 40/56/28 38/39/28
f 2/11/29 6/7/29 38/39/29 34/43/29
