# Blender v2.78 (sub 0) OBJ File: 'R2_Obstacle.blend'
# www.blender.org
mtllib R2_Obstacle.mtl
o Cube.001_Cube.002
v -1.000000 0.000000 1.000000
v -0.657043 1.258272 0.523690
v -1.000000 0.000000 -1.000000
v -0.409990 1.258272 -0.770744
v 0.772600 0.322838 0.658899
v 0.637390 1.258272 0.770744
v 0.772600 0.322838 -0.658899
v 0.884444 1.258272 -0.523690
v -0.490613 3.554787 -0.031047
v 0.031047 3.554787 -0.490613
v -0.031047 3.554787 0.490613
v 0.490613 3.554787 0.031047
v -0.586132 5.147414 -0.738656
v 0.738656 5.147414 -0.586132
v -0.738656 5.147414 0.586132
v 0.586132 5.147414 0.738656
v 0.220847 6.507249 -1.918216
v 1.918216 6.507249 0.220847
v -1.918216 6.507249 -0.220847
v -0.220847 6.507249 1.918216
vt 0.7822 0.7119
vt 0.9320 0.7334
vt 0.9320 0.9429
vt 0.7822 0.9214
vt 0.1969 0.3896
vt 0.3467 0.4111
vt 0.3467 0.6206
vt 0.1969 0.5991
vt 0.9997 0.0003
vt 0.9782 0.1501
vt 0.7686 0.1501
vt 0.7901 0.0003
vt 0.5714 0.7544
vt 0.5499 0.9042
vt 0.3403 0.9042
vt 0.3618 0.7544
vt 0.7816 0.9214
vt 0.5720 0.9214
vt 0.5720 0.7119
vt 0.7816 0.7119
vt 0.5720 0.0746
vt 0.7680 0.0003
vt 0.7680 0.2438
vt 0.5720 0.3180
vt 0.3774 0.0796
vt 0.5714 0.0003
vt 0.5714 0.2975
vt 0.3774 0.3767
vt 0.6462 0.5146
vt 0.5720 0.3187
vt 0.8155 0.3187
vt 0.8897 0.5146
vt 0.0003 0.4638
vt 0.1963 0.3896
vt 0.1963 0.6330
vt 0.0003 0.7073
vt 0.6462 0.7112
vt 0.5720 0.5153
vt 0.8155 0.5153
vt 0.8897 0.7112
vt 0.3767 0.3889
vt 0.2975 0.1950
vt 0.2975 0.1950
vt 0.3767 0.3889
vt 0.0796 0.3889
vt 0.0003 0.1950
vt 0.0796 0.1943
vt 0.0003 0.0003
vt 0.2975 0.0003
vt 0.3767 0.1943
vt 0.3774 0.4566
vt 0.5714 0.3774
vt 0.5714 0.6745
vt 0.3774 0.7538
vt 0.2099 0.7079
vt 0.2099 0.9175
vt 0.0003 0.9175
vt 0.0003 0.7079
vt 0.2975 0.0003
vt 0.3767 0.1943
vt 0.5714 0.6745
vt 0.3774 0.7538
vt 0.5714 0.2975
vt 0.3774 0.3767
vn -0.9375 0.3407 -0.0703
vn 0.1765 0.1061 -0.9786
vn 0.9956 -0.0000 0.0942
vn 0.0131 0.1627 0.9866
vn 0.1792 -0.9838 0.0000
vn 0.9002 0.1846 0.3945
vn 0.1603 -0.2123 0.9640
vn -0.9116 0.0967 -0.3995
vn -0.3984 0.1217 0.9091
vn 0.3962 0.1603 -0.9041
vn 0.5293 -0.4823 -0.6980
vn -0.1603 -0.2123 -0.9640
vn -0.9640 -0.2123 0.1603
vn 0.9640 -0.2123 -0.1603
vn 0.0000 1.0000 0.0000
vn -0.6980 -0.4823 -0.5293
vn 0.6980 -0.4823 0.5293
vn -0.5293 -0.4823 0.6980
usemtl None
s off
f 1/1/1 2/2/1 4/3/1 3/4/1
f 3/5/2 4/6/2 8/7/2 7/8/2
f 7/9/3 8/10/3 6/11/3 5/12/3
f 5/13/4 6/14/4 2/15/4 1/16/4
f 3/17/5 7/18/5 5/19/5 1/20/5
f 6/21/6 8/22/6 12/23/6 11/24/6
f 11/25/7 12/26/7 16/27/7 15/28/7
f 4/29/8 2/30/8 9/31/8 10/32/8
f 2/33/9 6/34/9 11/35/9 9/36/9
f 8/37/10 4/38/10 10/39/10 12/40/10
f 14/41/11 13/42/11 17/43/11 18/44/11
f 10/45/12 9/46/12 13/42/12 14/41/12
f 9/47/13 11/48/13 15/49/13 13/50/13
f 12/51/14 10/52/14 14/53/14 16/54/14
f 20/55/15 18/56/15 17/57/15 19/58/15
f 13/50/16 15/49/16 19/59/16 17/60/16
f 16/54/17 14/53/17 18/61/17 20/62/17
f 15/28/18 16/27/18 20/63/18 19/64/18
