# Blender v2.78 (sub 0) OBJ File: 'R3_Corner.blend'
# www.blender.org
mtllib R3_Corner.mtl
o Cube.002
v -0.500000 -0.000000 0.061983
v -0.500000 1.626743 -0.171631
v -0.237365 0.745500 0.413331
v -0.237365 -0.026764 0.524235
v -0.500000 0.000000 -0.671631
v -0.500000 1.658609 -0.671631
v 0.500000 1.658610 -0.671631
v 0.500000 0.000000 -0.671631
v 0.237365 -0.026764 0.524235
v 0.237365 0.745500 0.413331
v 0.500000 -0.000000 0.061983
v 0.500000 1.626743 -0.171631
v 0.500000 1.626743 0.119149
v 0.500000 -0.000000 0.352763
v 0.500000 7.000000 -0.671630
v -0.500000 7.000000 -0.671630
v -0.500000 7.000000 -0.171630
v 0.500000 7.000000 -0.171630
v -0.732255 6.061923 -0.241523
v -0.732255 2.174145 -0.241524
v 0.732255 6.061923 -0.601737
v 0.732255 2.197103 -0.601738
v 0.814514 1.658610 -0.671631
v 0.814514 1.626743 -0.171631
v 1.161222 0.334672 -0.171631
v 1.161222 0.341045 -0.671631
v 1.000000 0.000000 -0.671631
v 0.814514 -0.000000 0.061983
v 1.161222 0.009323 -0.671631
v 1.161222 0.009323 -0.171631
v -0.732255 2.197102 -0.601738
v -0.732255 6.061923 -0.601737
v 0.732255 2.174145 -0.241524
v 0.732255 6.061923 -0.241523
v -1.036534 6.251123 -0.601737
v -1.879328 7.000000 -0.671630
v 1.879328 7.000000 -0.671630
v 1.036534 6.251123 -0.601737
v 1.879328 7.000000 -0.171630
v 1.036534 6.251123 -0.241523
v -1.879328 7.000000 -0.171630
v -1.036534 6.251123 -0.241523
v -0.500000 1.626743 0.119149
v -0.500000 -0.000000 0.352763
vt 0.0647 0.2759
vt 0.2502 0.4021
vt 0.0886 0.4021
vt 0.0006 0.3422
vt 0.0006 0.4033
vt 0.2270 0.4033
vt 0.2270 0.5398
vt 0.0006 0.5398
vt 0.7685 0.3191
vt 0.7685 0.5455
vt 0.6683 0.5455
vt 0.7002 0.3235
vt 0.2642 0.7923
vt 0.4886 0.7923
vt 0.4757 0.8825
vt 0.2513 0.8825
vt 0.7832 0.5038
vt 0.9197 0.5038
vt 0.9197 0.6039
vt 0.7832 0.6039
vt 0.9868 0.0006
vt 0.9868 0.1371
vt 0.9186 0.1371
vt 0.9186 0.0006
vt 0.0006 0.1371
vt 0.0006 0.0006
vt 0.7341 0.0006
vt 0.7341 0.1371
vt 0.2513 0.6896
vt 0.9849 0.6896
vt 0.8568 0.7227
vt 0.3260 0.7227
vt 0.0006 0.2747
vt 0.0006 0.1382
vt 0.7298 0.1382
vt 0.7298 0.2747
vt 0.2513 0.7581
vt 0.9805 0.7581
vt 0.8524 0.7912
vt 0.3248 0.7912
vt 0.7163 0.7923
vt 0.7128 0.8607
vt 0.4897 0.8606
vt 0.4904 0.7923
vt 0.9208 0.5722
vt 0.9208 0.5038
vt 0.9891 0.5038
vt 0.9891 0.5722
vt 0.9061 0.4766
vt 0.7696 0.4766
vt 0.8054 0.3191
vt 0.8702 0.3191
vt 0.0006 0.8077
vt 0.2270 0.8077
vt 0.2270 0.8760
vt 0.0006 0.8760
vt 0.1845 0.6474
vt 0.1845 0.5409
vt 0.2493 0.5409
vt 0.2493 0.6474
vt 0.7141 0.9300
vt 0.4897 0.9300
vt 0.4897 0.8618
vt 0.7141 0.8618
vt 0.3889 0.9838
vt 0.3889 0.8836
vt 0.4572 0.8836
vt 0.4572 0.9838
vt 0.1845 0.6486
vt 0.2298 0.6486
vt 0.2289 0.7168
vt 0.1845 0.7168
vt 0.7174 0.8899
vt 0.7402 0.7923
vt 0.8731 0.8234
vt 0.8576 0.8899
vt 0.7174 0.8910
vt 0.8539 0.8910
vt 0.8180 0.9760
vt 0.7532 0.9760
vt 0.4757 0.4160
vt 0.2513 0.4160
vt 0.2567 0.2759
vt 0.3011 0.2772
vt 0.2513 0.4171
vt 0.4777 0.4171
vt 0.2979 0.5536
vt 0.2526 0.5536
vt 0.2544 0.6542
vt 0.2513 0.6051
vt 0.7821 0.6051
vt 0.7821 0.6542
vt 0.2513 0.6039
vt 0.2544 0.5548
vt 0.7821 0.5548
vt 0.7821 0.6039
vt 0.8742 0.9984
vt 0.8742 0.9300
vt 0.9547 0.9348
vt 0.9547 0.9841
vt 0.1834 0.6743
vt 0.1834 0.8066
vt 0.1369 0.7916
vt 0.0006 0.7194
vt 0.9870 0.2187
vt 0.9186 0.2187
vt 0.9329 0.1382
vt 0.9821 0.1382
vt 0.9849 0.6885
vt 0.2513 0.6885
vt 0.3260 0.6554
vt 0.8568 0.6554
vt 0.0006 0.6732
vt 0.0006 0.5409
vt 0.1834 0.5860
vt 0.0471 0.6581
vt 0.9805 0.7570
vt 0.2513 0.7570
vt 0.3248 0.7239
vt 0.8524 0.7239
vt 0.6437 0.9312
vt 0.6437 0.9994
vt 0.4897 0.9899
vt 0.4897 0.9407
vt 0.9755 0.4730
vt 0.9072 0.4730
vt 0.9168 0.3191
vt 0.9660 0.3191
vt 0.4768 0.4043
vt 0.5084 0.2759
vt 0.5500 0.3016
vt 0.6651 0.4043
vt 0.7832 0.6542
vt 0.7832 0.6051
vt 0.8321 0.6051
vt 0.8321 0.6542
vt 0.0006 0.9454
vt 0.0006 0.8771
vt 0.1889 0.8771
vt 0.1889 0.9454
vt 0.9236 0.2417
vt 0.9236 0.3100
vt 0.7353 0.3100
vt 0.7353 0.2417
vt 0.2334 0.7179
vt 0.2334 0.7671
vt 0.1845 0.7671
vt 0.1845 0.7179
vt 0.6355 0.4171
vt 0.6672 0.5455
vt 0.4789 0.5455
vt 0.5939 0.4429
vt 0.8262 0.0006
vt 0.8262 0.2249
vt 0.7353 0.2406
vt 0.7353 0.1341
vt 0.9653 0.7923
vt 0.9653 0.9289
vt 0.8742 0.9289
vt 0.8742 0.7923
vt 0.9174 0.0006
vt 0.9174 0.2249
vt 0.8273 0.2379
vt 0.8273 0.0135
vt 0.2513 0.8836
vt 0.3878 0.8836
vt 0.3878 0.9747
vt 0.2513 0.9747
vn 0.5490 -0.2186 0.8067
vn 0.1109 0.2848 0.9522
vn 0.3363 0.2065 0.9188
vn 0.2898 -0.9082 0.3021
vn -0.5774 -0.5774 -0.5774
vn -0.4325 0.0000 -0.9016
vn -0.0000 0.0000 -1.0000
vn -0.4138 -0.9103 -0.0000
vn -1.0000 0.0000 0.0000
vn 1.0000 -0.0000 0.0000
vn 0.0000 -1.0000 -0.0000
vn 0.0000 1.0000 0.0000
vn 0.0000 -0.0000 1.0000
vn -0.2882 -0.0000 0.9576
vn 0.2882 0.0000 -0.9576
vn 0.9664 0.2568 0.0098
vn 0.0000 0.9980 0.0636
vn -0.1109 0.2848 0.9522
vn -0.3363 0.2065 0.9188
vn 0.0000 0.1422 0.9898
vn 0.0000 0.1421 0.9898
vn 0.0228 -0.9997 0.0034
vn 0.0157 -0.9999 0.0001
vn 0.0394 -0.9992 0.0059
vn -0.5490 -0.2186 0.8067
vn -0.2898 -0.9082 0.3021
vn 0.4848 0.1039 0.8684
vn 0.9191 -0.3932 -0.0251
vn -0.0097 -0.0861 -0.9962
vn -0.9191 -0.3932 -0.0251
vn 0.2882 -0.0000 0.9576
vn 0.0097 -0.0861 -0.9962
vn -0.2882 0.0000 -0.9576
vn 0.6642 -0.7475 0.0000
vn -0.6642 -0.7475 0.0000
vn 0.0097 -0.0861 0.9962
vn 0.5280 -0.8492 0.0000
vn -0.5280 -0.8492 0.0000
vn -0.0097 -0.0861 0.9962
usemtl None
s 1
f 14/1/1 13/2/2 10/3/3 9/4/4
f 5/5/5 6/6/6 7/7/7 8/8/7
f 6/9/6 5/10/5 1/11/8 2/12/9
f 11/13/10 12/14/10 13/15/10 14/16/10
f 5/17/5 8/18/11 11/19/11 1/20/8
f 15/21/12 16/22/12 17/23/12 18/24/12
f 2/25/13 12/26/13 18/27/13 17/28/13
f 2/29/14 17/30/14 19/31/14 20/32/14
f 7/33/7 6/34/6 16/35/7 15/36/7
f 7/37/15 15/38/15 21/39/15 22/40/15
f 23/41/16 24/42/16 25/43/16 26/44/16
f 7/45/17 12/46/17 24/47/17 23/48/17
f 13/49/2 43/50/18 3/51/19 10/52/3
f 8/53/7 7/54/7 23/55/7 27/56/7
f 9/57/20 10/58/20 3/59/20 4/60/20
f 12/61/21 11/62/21 28/63/21 24/64/21
f 11/65/11 8/66/11 27/67/22 28/68/23
f 29/69/10 26/70/10 25/71/10 30/72/10
f 28/73/23 27/74/22 29/75/24 30/76/24
f 44/77/25 14/78/1 9/79/4 4/80/26
f 24/81/27 28/82/27 30/83/27 25/84/27
f 27/85/7 23/86/7 26/87/7 29/88/7
f 31/89/9 20/90/9 19/91/9 32/92/9
f 33/93/10 22/94/10 21/95/10 34/96/10
f 12/97/28 7/98/28 22/99/28 33/100/28
f 16/101/29 32/102/29 35/103/29 36/104/29
f 6/105/30 2/106/30 20/107/30 31/108/30
f 18/109/31 12/110/31 33/111/31 34/112/31
f 21/113/32 15/114/32 37/115/32 38/116/32
f 16/117/33 6/118/33 31/119/33 32/120/33
f 37/121/34 39/122/34 40/123/34 38/124/34
f 41/125/35 36/126/35 35/127/35 42/128/35
f 18/129/36 34/130/36 40/131/36 39/132/36
f 34/133/37 21/134/37 38/135/37 40/136/37
f 15/137/12 18/138/12 39/139/12 37/140/12
f 17/141/12 16/142/12 36/143/12 41/144/12
f 32/145/38 19/146/38 42/147/38 35/148/38
f 19/149/39 17/150/39 41/151/39 42/152/39
f 43/153/18 44/154/25 4/155/26 3/156/19
f 12/157/12 2/158/12 43/159/12 13/160/12
f 2/161/9 1/162/9 44/163/9 43/164/9
f 1/165/8 11/166/11 14/167/11 44/168/11
